<svg xmlns="http://www.w3.org/2000/svg" width="440" height="908" fill="none" viewBox="0 0 440 908"><path fill="#fcfcfc" d="M0 0h440v908H0z"/><path fill="#fff" d="M0 0h440v50H0z"/><path fill="#000" d="M21.065 25.93q1.632 0 2.771.697 1.156.68 1.768 1.989t.612 3.23q0 2.04-.748 3.451-.73 1.41-2.04 2.142-1.31.73-3.043.731-.9 0-1.717-.187a4.3 4.3 0 0 1-1.41-.578l.815-1.666q.494.323 1.071.459.579.12 1.19.119 1.683 0 2.67-1.037.985-1.036.985-3.06 0-.323-.017-.748a4.7 4.7 0 0 0-.119-.884l.68.748q-.289.697-.833 1.173a3.8 3.8 0 0 1-1.275.697 5.2 5.2 0 0 1-1.615.238q-1.155 0-2.09-.442a3.7 3.7 0 0 1-1.463-1.275q-.544-.833-.544-1.938 0-1.19.578-2.04a3.85 3.85 0 0 1 1.564-1.343 5.1 5.1 0 0 1 2.21-.476m.12 1.734a2.74 2.74 0 0 0-1.208.255 1.93 1.93 0 0 0-.833.697q-.288.443-.289 1.071 0 .935.646 1.479t1.734.544q.715 0 1.258-.255.544-.272.85-.731.306-.476.306-1.054a1.8 1.8 0 0 0-.289-1.003 2.03 2.03 0 0 0-.833-.731q-.544-.272-1.343-.272Zm7.852 3.978q-.578 0-.986-.391a1.38 1.38 0 0 1-.408-1.02q0-.645.408-1.02.408-.39.986-.391.578 0 .986.391.408.375.408 1.02 0 .612-.408 1.02-.407.39-.986.391m0 6.477q-.578 0-.986-.391a1.38 1.38 0 0 1-.408-1.02q0-.645.408-1.02.408-.39.986-.391.578 0 .986.391.408.375.408 1.02 0 .612-.408 1.02-.407.39-.986.391m2.655-2.822v-1.53l5.865-7.667h2.363l-5.78 7.667-1.105-.34h9.435v1.87zM38.22 38v-2.703l.068-1.87V31.03h2.074V38zm6.652 0V26.95l.97 1.003h-3.486V26.1h4.726V38z"/><path fill="#000" fill-rule="evenodd" d="M357.865 27.033c0-.633-.478-1.146-1.067-1.146h-1.066c-.589 0-1.067.513-1.067 1.146v9.934c0 .633.478 1.146 1.067 1.146h1.066c.589 0 1.067-.513 1.067-1.146zm-7.434 1.3h1.067c.589 0 1.066.525 1.066 1.173v7.434c0 .648-.477 1.173-1.066 1.173h-1.067c-.589 0-1.067-.525-1.067-1.173v-7.434c0-.648.478-1.174 1.067-1.174Zm-4.332 2.648h-1.067c-.589 0-1.066.532-1.066 1.189v4.755c0 .656.477 1.188 1.066 1.188h1.067c.589 0 1.067-.532 1.067-1.188V32.17c0-.657-.478-1.189-1.067-1.189m-5.301 2.445h-1.066c-.589 0-1.067.525-1.067 1.172v2.344c0 .647.478 1.171 1.067 1.171h1.066c.589 0 1.067-.524 1.067-1.171v-2.344c0-.647-.478-1.172-1.067-1.172m32.639-5.124c2.487 0 4.879.922 6.681 2.576a.356.356 0 0 0 .487-.004l1.297-1.263a.34.34 0 0 0-.003-.494c-4.731-4.375-12.195-4.375-16.926 0a.35.35 0 0 0-.108.246c0 .093.037.182.105.248l1.298 1.263c.133.13.351.132.486.004 1.803-1.654 4.195-2.576 6.683-2.576m-.004 4.22a5.43 5.43 0 0 1 3.673 1.436c.136.131.35.129.483-.006l1.287-1.32a.367.367 0 0 0-.005-.519 7.9 7.9 0 0 0-10.873 0 .367.367 0 0 0-.005.52l1.287 1.319a.34.34 0 0 0 .483.006 5.43 5.43 0 0 1 3.67-1.436m2.525 2.794a.4.4 0 0 1-.103.28l-2.176 2.455a.32.32 0 0 1-.242.113.32.32 0 0 1-.242-.113l-2.177-2.454a.4.4 0 0 1-.102-.281.4.4 0 0 1 .113-.276c1.39-1.314 3.426-1.314 4.816 0 .07.07.111.17.113.276" clip-rule="evenodd"/><rect width="24" height="12" x="389.507" y="26" stroke="#000" opacity=".35" rx="3.8"/><path fill="#000" d="M415.007 30.281v4.076a2.21 2.21 0 0 0 1.328-2.038c0-.89-.523-1.693-1.328-2.038" opacity=".4"/><rect width="21" height="9" x="391.007" y="27.5" fill="#000" rx="2.5"/><rect width="32" height="32" x="24" y="100" fill="url(#a)" rx="16"/><path fill="url(#b)" d="M0 0h19.2v19.2H0z" transform="translate(30.4 106.4)"/><path fill="#fff" d="m36.66 116.8 4.48 4.48L40 122.4l-6.4-6.4 6.4-6.4 1.14 1.12-4.48 4.48h9.74v1.6z"/><path fill="#000" d="M145.692 122v-12.6h1.926l5.508 9.198h-1.008l5.418-9.198h1.926l.018 12.6h-2.214l-.018-9.126h.468l-4.608 7.686h-1.044l-4.68-7.686h.54V122zm17.767 3.618q-.702 0-1.404-.234a3.3 3.3 0 0 1-1.17-.648l.9-1.656q.342.306.774.486t.882.18q.612 0 .99-.306t.702-1.026l.558-1.26.18-.27 3.636-8.496h2.16l-4.5 10.386q-.45 1.08-1.008 1.71-.54.63-1.224.882a4.1 4.1 0 0 1-1.476.252m1.98-3.276-4.338-9.954h2.34l3.528 8.298zm10.482-.216a8.7 8.7 0 0 1-2.322-.306q-1.098-.324-1.746-.774l.864-1.71q.648.414 1.548.684t1.8.27q1.062 0 1.53-.288.486-.288.486-.774a.65.65 0 0 0-.324-.594q-.324-.216-.846-.324a18 18 0 0 0-1.17-.198q-.63-.09-1.278-.234a5 5 0 0 1-1.152-.45 2.5 2.5 0 0 1-.846-.81q-.324-.504-.324-1.332 0-.918.522-1.584.522-.684 1.458-1.044.954-.378 2.25-.378.972 0 1.962.216t1.638.612l-.864 1.71a4.4 4.4 0 0 0-1.386-.558 6 6 0 0 0-1.368-.162q-1.026 0-1.53.306-.486.306-.486.774 0 .432.324.648t.846.342 1.152.216q.648.072 1.278.234a5 5 0 0 1 1.152.45q.54.27.864.774t.324 1.314q0 .9-.54 1.566-.522.666-1.494 1.044-.972.36-2.322.36m12.215-.126v-1.944l-.126-.414v-3.402q0-.99-.594-1.53-.594-.558-1.8-.558-.81 0-1.602.252a3.9 3.9 0 0 0-1.314.702l-.882-1.638q.774-.594 1.836-.882a8.2 8.2 0 0 1 2.232-.306q2.088 0 3.222 1.008 1.152.99 1.152 3.078V122zm-3.024.126q-1.08 0-1.89-.36-.81-.378-1.26-1.026a2.7 2.7 0 0 1-.432-1.494q0-.81.378-1.458.396-.648 1.278-1.026t2.34-.378h2.79v1.494h-2.628q-1.152 0-1.548.378-.396.36-.396.9 0 .612.486.972t1.35.36q.828 0 1.476-.378.666-.378.954-1.116l.378 1.35q-.324.846-1.17 1.314-.828.468-2.106.468m10.416-.126-4.122-9.612h2.34l3.546 8.478h-1.152l3.672-8.478h2.16L197.85 122zm7.85 0v-9.612h2.25V122zm1.134-11.196q-.63 0-1.044-.396a1.3 1.3 0 0 1-.396-.954q0-.576.396-.954.414-.396 1.044-.396t1.026.378q.414.36.414.918 0 .594-.396 1.008-.396.396-1.044.396m9.523 1.476q1.152 0 2.052.45.918.45 1.44 1.386.522.918.522 2.376V122h-2.25v-5.22q0-1.278-.612-1.908-.594-.63-1.674-.63-.792 0-1.404.324t-.954.972q-.324.63-.324 1.602V122h-2.25v-9.612h2.142v2.592l-.378-.792a3.36 3.36 0 0 1 1.458-1.404q.972-.504 2.232-.504m11.242 13.338a9.6 9.6 0 0 1-2.61-.36q-1.26-.342-2.07-1.008l1.008-1.692q.63.522 1.584.828a6.2 6.2 0 0 0 1.962.324q1.584 0 2.322-.738.738-.72.738-2.178v-1.71l.18-2.178-.072-2.178v-2.34h2.142v8.154q0 2.61-1.332 3.834-1.332 1.242-3.852 1.242m-.288-4.05q-1.368 0-2.484-.576a4.6 4.6 0 0 1-1.746-1.638q-.63-1.044-.63-2.448 0-1.386.63-2.43a4.45 4.45 0 0 1 1.746-1.62q1.116-.576 2.484-.576 1.224 0 2.196.486t1.548 1.512q.594 1.026.594 2.628c0 1.602-.198 1.95-.594 2.646q-.576 1.026-1.548 1.53-.972.486-2.196.486m.342-1.908q.846 0 1.512-.342.666-.36 1.026-.972.378-.63.378-1.44t-.378-1.422a2.3 2.3 0 0 0-1.026-.954 3.26 3.26 0 0 0-1.512-.342q-.846 0-1.53.342a2.43 2.43 0 0 0-1.044.954q-.36.612-.36 1.422t.36 1.44q.378.612 1.044.972.684.342 1.53.342m11.081 2.34-4.176-12.6h2.43l3.726 11.394h-1.206l3.87-11.394h2.16l3.762 11.394h-1.17l3.816-11.394h2.232L247.68 122h-2.484l-3.438-10.278h.648L238.914 122zm22.336 0v-1.944l-.126-.414v-3.402q0-.99-.594-1.53-.594-.558-1.8-.558-.81 0-1.602.252a3.9 3.9 0 0 0-1.314.702l-.882-1.638q.774-.594 1.836-.882a8.2 8.2 0 0 1 2.232-.306q2.088 0 3.222 1.008 1.152.99 1.152 3.078V122zm-3.024.126q-1.08 0-1.89-.36-.81-.378-1.26-1.026a2.7 2.7 0 0 1-.432-1.494q0-.81.378-1.458.396-.648 1.278-1.026t2.34-.378h2.79v1.494H256.3q-1.152 0-1.548.378-.396.36-.396.9 0 .612.486.972t1.35.36q.828 0 1.476-.378.666-.378.954-1.116l.378 1.35q-.324.846-1.17 1.314-.828.468-2.106.468m8.035-.126v-13.356h2.25V122zm5.203 0v-13.356h2.25V122zm9.721.126q-1.602 0-2.808-.63a4.77 4.77 0 0 1-1.854-1.764q-.648-1.116-.648-2.538 0-1.44.63-2.538a4.65 4.65 0 0 1 1.764-1.746q1.134-.63 2.574-.63 1.404 0 2.502.612a4.43 4.43 0 0 1 1.728 1.728q.63 1.116.63 2.628 0 .144-.018.324a3 3 0 0 1-.018.342h-8.01v-1.494h6.822l-.882.468q.018-.828-.342-1.458t-.99-.99q-.612-.36-1.422-.36-.828 0-1.458.36-.612.36-.972 1.008-.342.63-.342 1.494v.36q0 .864.396 1.53a2.64 2.64 0 0 0 1.116 1.026q.72.36 1.656.36.81 0 1.458-.252a3.1 3.1 0 0 0 1.152-.792l1.206 1.386a4.3 4.3 0 0 1-1.638 1.17q-.972.396-2.232.396m10.298 0q-1.584 0-2.448-.81-.864-.828-.864-2.43v-8.622h2.25v8.568q0 .684.342 1.062.36.378.99.378.756 0 1.26-.396l.63 1.602a2.6 2.6 0 0 1-.972.486q-.576.162-1.188.162m-4.896-7.866v-1.8h6.408v1.8z"/><rect width="36" height="36" x="380" y="98" fill="url(#c)" rx="18"/><path fill="#fff" d="M403.4 112.073 401.327 110l-3.627 3.627-3.627-3.627-2.073 2.073 3.627 3.627-3.627 3.627 2.073 2.073 3.627-3.627 3.627 3.627 2.073-2.073-3.627-3.627z"/><circle cx="215.5" cy="253.5" r="76.5" fill="#ffd24d" stroke="url(#d)" stroke-width="2"/><path fill="#b68859" d="M217.117 237.866s3.07-1.216 5.794-1.676c2.725-.454 4.947-.378 4.947-.378s2.385-3.12 2.725-4.796c.339-1.675.381-3.232.423-3.503.103-.648 4.947-.686 5.964 1.903 1.023 2.59-.254 5.709-1.108 6.85-.854 1.14-1.792 1.978-1.792 1.978s4.178 3.503 5.116 7.385c.939 3.881.684 9.59.684 9.59s-.254 4.336-2.639 4.644c-2.386.302-5.286-1.638-5.71-2.092s-1.247-1.736-2.64-1.33c-1.574.454-1.98 2.076-2.301 3.503-.399 1.751-.993 6.217-.993 6.217s-2.839 1.016-4.547.784c-1.707-.227-3.838-2.055-3.838-2.055s.169-2.281-.685-2.741c-.853-.459-1.707.838-1.707.838l-3.409 3.347-4.686-3.428s-.339-1.524-.854-2.281c-.508-.762-1.532-2.433-1.877-3.579-.847-2.816-.593-8.217-.593-8.217l-5.201-22.678 1.277-1.065s1.193-5.482 3.07-7.839 3.409-2.967 4.432-3.427 4.178-.762 4.178 0-1.447 1.752-2.301 2.968-1.792 2.968-2.301 4.492c-.508 1.525-1.077 3.347-1.077 3.347l1.846.378s1.024-2.206 1.962-3.346c.939-1.141 2.258-2.703 3.881-3.806 1.375-.935 3.282-1.903 5.413-1.903s4.947.535 4.686 1.941c-.139.767-1.749.416-3.366 1.367-1.968 1.157-4.093 3.082-5.667 6.315-1.574 3.232-2.131 4.643-2.131 4.643s4.135 3.466 4.559 4.644c.424 1.179.466 3.006.466 3.006"/><path fill="#6d4938" d="M198.365 249.029s3.469 1.957 5.001 2.027c2.355.114 5.825-1.129 7.998-3.259s3.966-5.233 3.651-9.018c-.272-3.259-1.519-4.454-1.519-4.454s2.173 1.903 5.328 1.676c3.154-.227 5.709-1.941 6.69-3.655.775-1.351 1.49-3.005 1.023-3.308-.466-.303-2.034 0-2.034 0l-5.94 2.395-10.184.611-10.656 13.585zm-8.186-21.613c-.424.26.212 1.979 1.708 3.006s3.62 1.33 3.62 1.33l3.155-3.844s-7.672-.989-8.483-.492"/><path fill="#855b52" d="M217.171 264.074s1.732 1.422 4.16 1.233c2.428-.19 4.619-1.584 4.619-1.584s-.484 4.438-.526 5.276-.128 3.297-.128 3.297-3.069 2.941-4.728 2.676c-1.665-.265-3.978-2.865-3.936-3.362s.4-2.725.485-3.871c.084-1.14.054-3.665.054-3.665m-6.321-.676c2.597-.162 4.559-1.054 4.559-1.054s.139 3.249.085 4.109c-.097 1.502-.23 3.297-.4 3.757-.169.454-5.697 1.103-5.697 1.103s-2.682-2.13-2.682-2.244c0-.113.139-1.735.199-2.941.043-.876-.254-3.6-.254-3.6s1.72 1.027 4.19.87m20.416-5.919s1.835.178 3.07.065c1.235-.114 3.79-.952 4.432-1.33s1.108-.99 1.108-.99-.254 4.72-.212 5.633.043 3.082.043 3.082-2.004 2.892-4.136 3.081c-2.131.189-4.305-3.324-4.305-3.324s.315-1.855.315-2.995c-.006-1.141-.315-3.222-.315-3.222"/><path fill="#46484a" d="M220.495 272.951c2.252.178 4.844-.914 4.844-.914s.212 3.465-.382 4.465c-.508.865-2.076 1.801-5.921 1.244-2.495-.362-2.797-1.681-2.943-2.514-.139-.838.509-3.73.509-3.73s1.041 1.222 3.893 1.449m15.034-8.115c1.792-.054 4.178-.902 4.178-.902s.127 3.384-1.32 4.568c-1.665 1.356-5.613.94-6.721-.168-1.108-1.103-.4-4.746-.4-4.746s1.829 1.324 4.263 1.248m-24.891 5.033c2.095.076 4.632-.594 4.632-.594s.315 4.087-1.817 4.795c-2.264.757-5.225.584-6.393-.736-.842-.951-.382-4.416-.382-4.416s1.786.876 3.96.951"/><path fill="#855b52" d="M200.793 228.886c.418.222 1.278-2.092 6.775-2.054 6.055.038 9.246 2.665 9.718 2.703.466.038 3.705 0 4.729-.075 1.023-.076 2.815-.801 2.773-.265-.043.535-.727 3.465-3.748 4.222-3.027.762-8.138-.876-9.118-.952s-1.835 0-1.75 1.33-11.123 7.347-11.123 7.347-8.198-3.411-8.325-3.833c-.127-.416.793-1.524 1.55-2.562.957-1.319 1.447-2.779 1.962-3.541.508-.763 1.32-1.752 1.32-1.752s-1.593.114-2.64-.292c-.721-.276-2.513-1.346-2.598-1.724-.084-.379 2.005.038 3.706-.114 1.707-.151 4.898-1.751 4.898-1.751s1.066.762 1.362 1.486c.297.725.297 1.714.509 1.827"/><path fill="#46484a" d="M193.419 246.888s-.491 1.676-.2 3.504c.23 1.432 1.435 2.816 1.647 3.308s.599 1.638.557 2.016.539.471.666.19c.157-.341-.012-.817.424-.725.484.103 0 .941.623.962.654.027.212-.762.685-.762.496 0 .054.903.769.887.653-.011.042-.8.666-.784.508.011.084.838.793.746.399-.049-.067-.897.454-1 .454-.087.212.762.738.584.34-.114.455-.903.327-1.817-.127-.913-.508-2.205-.726-3.249-.212-1.038-.454-2.146-.466-3.135s-.031-2.146-.031-2.146z"/><path fill="#fff3dd" d="M201.235 238.147c.333.027 1.593-1.216 2.162-2.103.569-.886 2.076-2.843 4.292-3.07 2.277-.233 3.609.837 4.148 2.513.496 1.546.03 3.325-2.246 4.287-2.192.93-3.04.557-4.887 1.038-.98.254-2.5 1.016-2.585 1.114-.085.103.503 3.746-2.724 5.325-2.701 1.319-6.848.811-8.98-1.573-2.337-2.617-1.901-6.547-.169-8.45 1.713-1.881 3.778-2.568 6.817-1.773 3.403.892 3.857 2.665 4.172 2.692"/><path fill="#2e2e2e" d="M210.184 236.828c0 1.114-.793 2.13-2.356 2.157-1.338.022-1.858-.968-1.901-2.081-.054-1.422 1.084-2.136 2.216-2.157 1.472-.027 2.041.967 2.041 2.081m-18.043 2.811s2.216-1.087 2.494-1.216c.279-.13.999-.363 1.387.173.381.535-.236 1.011-.727 1.2-.49.189-2.555 1.313-2.555 1.313s-.236 1.39-.024 1.541c.569.406 1.429.627 2.131.573.703-.059 1.26-.324 1.471-.362s.812-.059.939.324c.127.379-.176.822-.702 1.049-.63.265-1.26.546-2.325.379-.83-.13-1.49-.303-1.877-.536-.382-.227-.787-.648-.787-.648s-.576.627-1.108.61c-.533-.021-1.217-.324-1.236-.378-.024-.059-.726-.551-.405-1.087s1.041.19 1.489.249c.448.06.727-.211.769-.34.043-.136.024-1.617.024-1.617s-.956-1.103-1.174-1.292c-.212-.189-.769-.816-.194-1.2s.957 0 1.108.114c.151.113 1.302 1.151 1.302 1.151"/><rect width="35.844" height="35.844" x="236.578" y="301.578" fill="#1b34ff" rx="17.922"/><rect width="35.844" height="35.844" x="236.578" y="301.578" stroke="#1b34ff" stroke-width="1.156" rx="17.922"/><path fill="#fff" d="M245.25 324.896v3.854h3.854l11.365-11.366-3.853-3.853zm18.199-10.492a1.02 1.02 0 0 0 0-1.449l-2.404-2.404a1 1 0 0 0-.725-.301 1.03 1.03 0 0 0-.724.301l-1.881 1.88 3.854 3.854z"/><rect width="383" height="59" x="24.5" y="414.5" fill="#f9fafb" rx="11.5"/><rect width="383" height="59" x="24.5" y="414.5" stroke="#d9d9d9" rx="11.5"/><path fill="#666" d="m43.977 450.5-3.42-12.6h1.926l2.556 10.494 2.934-10.494h1.998l2.844 10.53 2.592-10.53h1.926l-3.474 12.6h-2.106l-2.826-10.026-2.898 10.026zm17.129.216q-1.116 0-1.854-.378c-.738-.378-.858-.588-1.098-1.008a2.8 2.8 0 0 1-.36-1.386q0-.9.468-1.53.468-.648 1.332-.99t2.07-.342h2.358q0-.792-.234-1.314a1.6 1.6 0 0 0-.702-.774q-.45-.27-1.152-.27-.81 0-1.386.396-.576.378-.72 1.134h-1.8q.108-.954.648-1.62a3.6 3.6 0 0 1 1.422-1.044 4.5 4.5 0 0 1 1.836-.378q1.278 0 2.142.45t1.296 1.278q.45.81.45 1.944v5.616h-1.566l-.144-1.53q-.198.36-.468.684t-.648.558q-.36.234-.846.36-.468.144-1.044.144m.342-1.458q.576 0 1.044-.234t.792-.63q.342-.414.504-.918a3.6 3.6 0 0 0 .198-1.062v-.054h-2.142q-.774 0-1.26.198-.468.18-.684.504a1.33 1.33 0 0 0-.216.756q0 .45.198.774.216.306.612.486c.396.18.582.18.954.18m6.672 1.242v-12.96h1.8v12.96zm4.271 0v-12.96h1.8v12.96zm8.375.216q-1.296 0-2.303-.594a4.2 4.2 0 0 1-1.584-1.656q-.56-1.062-.559-2.466 0-1.44.559-2.502a4.2 4.2 0 0 1 1.584-1.674q1.008-.612 2.34-.612t2.285.594a4.07 4.07 0 0 1 1.477 1.584q.521.972.522 2.16 0 .18-.019.396 0 .198-.017.45h-7.416v-1.278h5.651q-.053-1.134-.755-1.764-.702-.648-1.747-.648a2.7 2.7 0 0 0-1.35.342q-.61.324-.99.972-.36.63-.36 1.602v.504q0 1.008.36 1.71.378.684.99 1.044a2.7 2.7 0 0 0 1.332.342q.864 0 1.422-.378a2.25 2.25 0 0 0 .828-1.026h1.8a4 4 0 0 1-.791 1.494 4 4 0 0 1-1.387 1.026q-.81.378-1.872.378m9.818-.216q-.864 0-1.494-.27t-.972-.9-.342-1.71v-4.662H86.21v-1.53h1.566l.216-2.268h1.584v2.268h2.574v1.53h-2.574v4.68q0 .774.324 1.062.324.27 1.116.27h1.044v1.53zm173.956 0v-12.6h1.764l4.446 8.802 4.464-8.802h1.782v12.6h-1.512v-9.9l-4.158 8.136h-1.134l-4.14-8.1v9.864zm16.035 3.96 2.214-4.968h-.522l-3.564-8.064h1.638l2.952 6.93 3.096-6.93h1.566l-5.796 13.032zm11.905-3.744q-1.134 0-1.98-.378a3.4 3.4 0 0 1-1.332-1.044 3.4 3.4 0 0 1-.594-1.602h1.548q.09.468.378.864c.288.396.45.48.774.648q.504.234 1.224.234.63 0 1.044-.18.414-.198.612-.522a1.24 1.24 0 0 0 .216-.702q0-.558-.27-.846-.252-.288-.756-.45a7.6 7.6 0 0 0-1.224-.306 10 10 0 0 1-1.17-.288 4.2 4.2 0 0 1-1.026-.468q-.45-.306-.72-.738-.252-.432-.252-1.062 0-.774.396-1.368.396-.612 1.134-.954.756-.342 1.746-.342 1.458 0 2.358.702t1.062 2.034h-1.494q-.09-.684-.594-1.062-.486-.396-1.35-.396-.846 0-1.296.342a1.1 1.1 0 0 0-.432.9q0 .36.234.648.252.27.72.468.486.198 1.188.324.9.162 1.638.432c.738.27.888.45 1.188.81q.468.522.468 1.494 0 .846-.432 1.476-.414.63-1.188.99-.774.342-1.818.342m8.567 0q-1.098 0-1.836-.378-.738-.396-1.098-1.026-.36-.648-.36-1.404 0-.918.468-1.548.486-.648 1.35-.972.882-.342 2.07-.342h2.394q0-.846-.27-1.404a1.8 1.8 0 0 0-.756-.864q-.486-.288-1.224-.288-.864 0-1.494.432t-.774 1.278h-1.548q.108-.972.648-1.62.558-.666 1.404-1.008a4.5 4.5 0 0 1 1.764-.36q1.26 0 2.088.468.846.45 1.26 1.278.414.81.414 1.926v5.616h-1.35l-.09-1.602a3.4 3.4 0 0 1-.468.72q-.27.324-.648.576a3.7 3.7 0 0 1-1.944.522m.234-1.278a2.5 2.5 0 0 0 1.134-.252q.522-.27.882-.72.36-.468.54-1.026.198-.558.198-1.17v-.054h-2.268q-.882 0-1.422.216-.54.198-.774.576-.234.36-.234.828 0 .486.216.846.234.36.666.558.45.198 1.062.198m8.881 1.062-3.438-9.072h1.584l2.736 7.614 2.754-7.614h1.548l-3.438 9.072zm7.026 0v-9.072h1.512v9.072zm.756-10.998q-.45 0-.756-.288a1.06 1.06 0 0 1-.288-.756q0-.45.288-.72.306-.288.756-.288.432 0 .738.288.306.27.306.72c0 .45-.102.552-.306.756q-.306.288-.738.288m3.424 10.998v-9.072h1.368l.072 1.584a3.16 3.16 0 0 1 1.224-1.314q.81-.486 1.836-.486 1.062 0 1.836.432.774.414 1.206 1.278.432.846.432 2.16v5.418h-1.512v-5.256q0-1.368-.612-2.052-.594-.684-1.692-.684a2.46 2.46 0 0 0-1.35.378q-.594.36-.954 1.062-.342.684-.342 1.71v4.842zm13.918 4.176q-1.224 0-2.178-.324-.936-.306-1.458-.954t-.522-1.602q0-.414.162-.882.18-.468.594-.918.432-.45 1.206-.81l1.044.612q-.954.396-1.242.9-.288.522-.288.954 0 .594.342.99t.954.594 1.386.198 1.332-.216.864-.612.306-.936q0-.63-.468-1.062-.468-.414-1.782-.486a17 17 0 0 1-1.782-.198 8 8 0 0 1-1.188-.288 4 4 0 0 1-.792-.396 5 5 0 0 1-.558-.45v-.414l1.746-1.728 1.314.468-1.8 1.62.234-.63q.198.144.378.27t.486.216.846.162q.558.072 1.458.144 1.242.09 1.98.432.756.342 1.08.918.342.576.342 1.368 0 .774-.432 1.458-.414.702-1.296 1.152t-2.268.45m-.018-7.02q-1.134 0-1.944-.432a3 3 0 0 1-1.206-1.152 3.3 3.3 0 0 1-.414-1.638q0-.9.414-1.62a3.15 3.15 0 0 1 1.224-1.152q.792-.45 1.926-.45c1.134 0 1.398.15 1.926.45q.792.432 1.206 1.152t.414 1.62-.414 1.638a3 3 0 0 1-1.206 1.152q-.792.432-1.926.432m0-1.242q.972 0 1.53-.504t.558-1.476q0-.954-.558-1.458t-1.53-.504q-.954 0-1.548.504-.576.504-.576 1.458 0 .972.576 1.476t1.548.504m1.476-3.708-.45-1.278h3.708v1.134zm7.679 7.794-3.456-12.6h1.62l2.718 10.8 3.078-10.8h1.692l3.006 10.836 2.754-10.836h1.62l-3.528 12.6h-1.728l-3.006-10.422-3.078 10.422zm16.811.216q-1.098 0-1.836-.378-.738-.396-1.098-1.026-.36-.648-.36-1.404 0-.918.468-1.548.486-.648 1.35-.972.882-.342 2.07-.342h2.394q0-.846-.27-1.404a1.8 1.8 0 0 0-.756-.864q-.486-.288-1.224-.288-.864 0-1.494.432t-.774 1.278h-1.548q.108-.972.648-1.62.558-.666 1.404-1.008a4.5 4.5 0 0 1 1.764-.36q1.26 0 2.088.468.846.45 1.26 1.278.414.81.414 1.926v5.616h-1.35l-.09-1.602a3.4 3.4 0 0 1-.468.72q-.27.324-.648.576a3.7 3.7 0 0 1-1.944.522m.234-1.278a2.5 2.5 0 0 0 1.134-.252q.522-.27.882-.72.36-.468.54-1.026.198-.558.198-1.17v-.054h-2.268q-.882 0-1.422.216-.54.198-.774.576-.234.36-.234.828 0 .486.216.846.234.36.666.558.45.198 1.062.198m6.605 1.062v-12.96h1.512v12.96zm4.008 0v-12.96h1.512v12.96zm7.986.216q-1.278 0-2.268-.594a4.17 4.17 0 0 1-1.53-1.656q-.558-1.08-.558-2.502 0-1.44.54-2.502a4.1 4.1 0 0 1 1.548-1.656q1.008-.594 2.304-.594 1.332 0 2.25.594a3.9 3.9 0 0 1 1.422 1.566q.504.954.504 2.106v.378q0 .198-.018.45h-7.416v-1.17h5.958q-.054-1.242-.828-1.944-.756-.702-1.908-.702-.774 0-1.44.36-.648.342-1.044 1.026-.396.666-.396 1.674v.504q0 1.116.396 1.872.414.756 1.062 1.134.666.378 1.422.378.954 0 1.566-.414.63-.432.9-1.152h1.494a3.8 3.8 0 0 1-.756 1.458q-.54.648-1.35 1.026-.792.36-1.854.36m9.518-.216q-.81 0-1.404-.252a1.85 1.85 0 0 1-.918-.846q-.306-.612-.306-1.638v-5.058h-1.584v-1.278h1.584l.198-2.196h1.314v2.196h2.628v1.278h-2.628v5.058q0 .846.342 1.152.342.288 1.206.288h.972v1.296z"/><rect width="383" height="59" x="24.5" y="498.5" fill="#f9fafb" rx="11.5"/><rect width="383" height="59" x="24.5" y="498.5" stroke="#d9d9d9" rx="11.5"/><path fill="#666" d="m40.68 534.5 4.626-12.6h1.962l4.626 12.6h-1.926l-3.69-10.44-3.708 10.44zm2.088-3.114.504-1.44h5.922l.504 1.44zm14.388 3.33q-1.296 0-2.286-.612a4.4 4.4 0 0 1-1.548-1.692q-.54-1.08-.54-2.448 0-1.386.54-2.448a4.25 4.25 0 0 1 1.548-1.674q1.008-.63 2.304-.63 1.062 0 1.872.432.81.414 1.26 1.188v-5.292h1.8v12.96h-1.62l-.18-1.404q-.27.414-.702.792-.432.36-1.044.594t-1.404.234m.288-1.566q.846 0 1.494-.396t.99-1.116q.36-.72.36-1.674t-.36-1.656a2.56 2.56 0 0 0-.99-1.116q-.648-.414-1.494-.414a2.65 2.65 0 0 0-1.458.414 2.7 2.7 0 0 0-1.008 1.116q-.36.702-.36 1.656t.36 1.674c.36.72.576.852 1.008 1.116a2.74 2.74 0 0 0 1.458.396m11.156 1.566q-1.296 0-2.286-.612a4.4 4.4 0 0 1-1.548-1.692q-.54-1.08-.54-2.448 0-1.386.54-2.448a4.25 4.25 0 0 1 1.548-1.674q1.008-.63 2.304-.63 1.062 0 1.872.432.81.414 1.26 1.188v-5.292h1.8v12.96h-1.62l-.18-1.404q-.27.414-.702.792-.432.36-1.044.594t-1.404.234m.288-1.566q.846 0 1.494-.396t.99-1.116q.36-.72.36-1.674t-.36-1.656a2.56 2.56 0 0 0-.99-1.116q-.648-.414-1.494-.414a2.65 2.65 0 0 0-1.458.414 2.7 2.7 0 0 0-1.008 1.116q-.36.702-.36 1.656t.36 1.674c.36.72.576.852 1.008 1.116a2.74 2.74 0 0 0 1.458.396m7.123 1.35v-9.072h1.62l.162 1.71a3.2 3.2 0 0 1 .792-1.026q.486-.432 1.134-.666a4.6 4.6 0 0 1 1.512-.234v1.908h-.648q-.558 0-1.062.144a2.3 2.3 0 0 0-.9.45q-.378.324-.594.882t-.216 1.386v4.518zm10.714.216q-1.296 0-2.304-.594a4.2 4.2 0 0 1-1.585-1.656q-.557-1.062-.558-2.466 0-1.44.558-2.502a4.2 4.2 0 0 1 1.585-1.674q1.007-.612 2.34-.612t2.285.594a4.07 4.07 0 0 1 1.476 1.584q.523.972.522 2.16 0 .18-.017.396 0 .198-.019.45h-7.415v-1.278h5.651q-.053-1.134-.755-1.764-.703-.648-1.746-.648a2.7 2.7 0 0 0-1.35.342q-.614.324-.99.972-.36.63-.36 1.602v.504q0 1.008.36 1.71.377.684.99 1.044.611.342 1.332.342.864 0 1.422-.378a2.27 2.27 0 0 0 .828-1.026h1.8a4 4 0 0 1-.793 1.494 4 4 0 0 1-1.385 1.026q-.81.378-1.872.378m9.83 0q-1.153 0-2.017-.378t-1.368-1.062a3.3 3.3 0 0 1-.612-1.602h1.836q.09.432.342.792.27.36.72.576.468.216 1.098.216.594 0 .972-.162.396-.18.576-.468.18-.306.18-.648 0-.504-.252-.756-.234-.27-.72-.414a8 8 0 0 0-1.134-.288q-.63-.108-1.224-.288a5.2 5.2 0 0 1-1.044-.486q-.45-.288-.72-.72-.27-.45-.27-1.098 0-.774.414-1.386.414-.63 1.17-.972.774-.36 1.818-.36 1.512 0 2.43.72t1.08 2.034h-1.746q-.072-.612-.54-.936-.468-.342-1.242-.342c-.774 0-.912.102-1.188.306a.96.96 0 0 0-.414.81q0 .324.234.576t.684.432q.468.162 1.134.306.954.18 1.71.45c.756.27.906.444 1.206.792q.45.522.45 1.494a2.46 2.46 0 0 1-.432 1.494q-.432.648-1.242 1.008-.792.36-1.89.36Zm9.193 0q-1.152 0-2.016-.378t-1.368-1.062a3.3 3.3 0 0 1-.612-1.602h1.836q.09.432.342.792.27.36.72.576.468.216 1.098.216.594 0 .972-.162.396-.18.576-.468.18-.306.18-.648 0-.504-.252-.756-.234-.27-.72-.414a8 8 0 0 0-1.134-.288q-.63-.108-1.224-.288a5.2 5.2 0 0 1-1.044-.486q-.45-.288-.72-.72-.27-.45-.27-1.098 0-.774.414-1.386.414-.63 1.17-.972.774-.36 1.818-.36 1.512 0 2.43.72t1.08 2.034h-1.746q-.072-.612-.54-.936-.468-.342-1.242-.342c-.774 0-.912.102-1.188.306a.96.96 0 0 0-.414.81q0 .324.234.576t.684.432q.468.162 1.134.306.954.18 1.71.45c.756.27.906.444 1.206.792q.45.522.45 1.494a2.46 2.46 0 0 1-.432 1.494q-.432.648-1.242 1.008-.792.36-1.89.36m9.787 0q-1.296 0-2.304-.594a4.2 4.2 0 0 1-1.584-1.656q-.558-1.062-.558-2.466 0-1.44.558-2.502a4.2 4.2 0 0 1 1.584-1.674q1.008-.612 2.34-.612t2.286.594a4.07 4.07 0 0 1 1.476 1.584q.522.972.522 2.16 0 .18-.018.396 0 .198-.018.45h-7.416v-1.278h5.652q-.054-1.134-.756-1.764-.702-.648-1.746-.648a2.7 2.7 0 0 0-1.35.342q-.612.324-.99.972-.36.63-.36 1.602v.504q0 1.008.36 1.71.378.684.99 1.044.612.342 1.332.342.864 0 1.422-.378t.828-1.026h1.8a4 4 0 0 1-.792 1.494 4 4 0 0 1-1.386 1.026q-.81.378-1.872.378m9.83 0q-1.152 0-2.016-.378t-1.368-1.062a3.3 3.3 0 0 1-.612-1.602h1.836q.09.432.342.792.27.36.72.576.468.216 1.098.216.594 0 .972-.162.396-.18.576-.468.18-.306.18-.648 0-.504-.252-.756-.234-.27-.72-.414a8 8 0 0 0-1.134-.288q-.63-.108-1.224-.288a5.2 5.2 0 0 1-1.044-.486q-.45-.288-.72-.72-.27-.45-.27-1.098 0-.774.414-1.386.414-.63 1.17-.972.774-.36 1.818-.36 1.512 0 2.43.72t1.08 2.034h-1.746q-.072-.612-.54-.936-.468-.342-1.242-.342c-.774 0-.912.102-1.188.306a.96.96 0 0 0-.414.81q0 .324.234.576t.684.432q.468.162 1.134.306.954.18 1.71.45c.756.27.906.444 1.206.792q.45.522.45 1.494a2.46 2.46 0 0 1-.432 1.494q-.432.648-1.242 1.008-.792.36-1.89.36m246.088-.609L377.56 528l-6.107-6.12 1.88-1.88 8 8-8 8z"/><rect width="386" height="69" x="27" y="606.5" fill="url(#e)" rx="34.5"/><rect width="386" height="69" x="27" y="606.5" stroke="#313e9e" rx="34.5"/><path fill="#fff" d="M160.585 647.18a9.6 9.6 0 0 1-2.826-.414q-1.35-.432-2.142-1.098l.81-1.818q.756.594 1.872.99a6.8 6.8 0 0 0 2.286.396q.99 0 1.602-.216t.9-.576q.288-.378.288-.846 0-.576-.414-.918-.414-.36-1.08-.558a15 15 0 0 0-1.458-.396 29 29 0 0 1-1.602-.414 7.6 7.6 0 0 1-1.458-.63 3.3 3.3 0 0 1-1.062-1.044q-.414-.648-.414-1.656 0-1.026.54-1.872.558-.864 1.674-1.368 1.134-.522 2.862-.522a9 9 0 0 1 2.25.288q1.116.288 1.944.828l-.738 1.818a6.7 6.7 0 0 0-1.746-.738 6.4 6.4 0 0 0-1.728-.252q-.972 0-1.584.234-.594.234-.882.612-.27.378-.27.864 0 .576.396.936.414.342 1.062.54.666.198 1.476.396.81.18 1.602.414.81.234 1.458.612.666.378 1.062 1.026.414.648.414 1.638 0 1.008-.558 1.872-.54.846-1.674 1.368-1.134.504-2.862.504m13.121-.18v-1.944l-.126-.414v-3.402q0-.99-.594-1.53-.594-.558-1.8-.558-.81 0-1.602.252a3.9 3.9 0 0 0-1.314.702l-.882-1.638q.774-.594 1.836-.882a8.2 8.2 0 0 1 2.232-.306q2.088 0 3.222 1.008 1.152.99 1.152 3.078V647zm-3.024.126q-1.08 0-1.89-.36-.81-.378-1.26-1.026a2.7 2.7 0 0 1-.432-1.494q0-.81.378-1.458.396-.648 1.278-1.026t2.34-.378h2.79v1.494h-2.628q-1.152 0-1.548.378-.396.36-.396.9 0 .612.486.972t1.35.36q.828 0 1.476-.378.666-.378.954-1.116l.378 1.35q-.324.846-1.17 1.314-.828.468-2.106.468m10.415-.126-4.122-9.612h2.34l3.546 8.478h-1.152l3.672-8.478h2.16L183.419 647zm12.105.126q-1.602 0-2.808-.63a4.77 4.77 0 0 1-1.854-1.764q-.648-1.116-.648-2.538 0-1.44.63-2.538a4.65 4.65 0 0 1 1.764-1.746q1.134-.63 2.574-.63 1.404 0 2.502.612a4.43 4.43 0 0 1 1.728 1.728q.63 1.116.63 2.628 0 .144-.018.324a3 3 0 0 1-.018.342h-8.01v-1.494h6.822l-.882.468q.018-.828-.342-1.458t-.99-.99q-.612-.36-1.422-.36-.828 0-1.458.36-.612.36-.972 1.008-.342.63-.342 1.494v.36q0 .864.396 1.53a2.64 2.64 0 0 0 1.116 1.026q.72.36 1.656.36.81 0 1.458-.252a3.1 3.1 0 0 0 1.152-.792l1.206 1.386a4.3 4.3 0 0 1-1.638 1.17q-.972.396-2.232.396m17.702.054q-1.44 0-2.682-.468a6.7 6.7 0 0 1-2.142-1.35 6.3 6.3 0 0 1-1.404-2.07 6.6 6.6 0 0 1-.504-2.592q0-1.404.504-2.592a6 6 0 0 1 1.422-2.052 6.3 6.3 0 0 1 2.142-1.35q1.224-.486 2.682-.486 1.548 0 2.826.54 1.278.522 2.16 1.566l-1.512 1.422a4.5 4.5 0 0 0-1.53-1.098 4.45 4.45 0 0 0-1.836-.378q-.99 0-1.818.324a4.3 4.3 0 0 0-1.422.918 4.4 4.4 0 0 0-.936 1.404 4.8 4.8 0 0 0-.324 1.782q0 .972.324 1.782.342.81.936 1.404.612.594 1.422.918a5 5 0 0 0 1.818.324q.99 0 1.836-.36a4.6 4.6 0 0 0 1.53-1.134l1.512 1.44a5.8 5.8 0 0 1-2.16 1.566q-1.278.54-2.844.54m12.484-9.9q1.152 0 2.052.45.918.45 1.44 1.386.522.918.522 2.376V647h-2.25v-5.22q0-1.278-.612-1.908-.594-.63-1.674-.63-.792 0-1.404.324t-.954.972q-.324.63-.324 1.602V647h-2.25v-13.356h2.25v6.336l-.486-.792a3.36 3.36 0 0 1 1.458-1.404q.972-.504 2.232-.504m12.79 9.72v-1.944l-.126-.414v-3.402q0-.99-.594-1.53-.594-.558-1.8-.558-.81 0-1.602.252a3.9 3.9 0 0 0-1.314.702l-.882-1.638q.774-.594 1.836-.882a8.2 8.2 0 0 1 2.232-.306q2.088 0 3.222 1.008 1.152.99 1.152 3.078V647zm-3.024.126q-1.08 0-1.89-.36-.81-.378-1.26-1.026a2.7 2.7 0 0 1-.432-1.494q0-.81.378-1.458.396-.648 1.278-1.026t2.34-.378h2.79v1.494h-2.628q-1.152 0-1.548.378-.396.36-.396.9 0 .612.486.972t1.35.36q.828 0 1.476-.378.666-.378.954-1.116l.378 1.35q-.324.846-1.17 1.314-.828.468-2.106.468m13.49-9.846q1.152 0 2.052.45.918.45 1.44 1.386.522.918.522 2.376V647h-2.25v-5.22q0-1.278-.612-1.908-.594-.63-1.674-.63-.792 0-1.404.324t-.954.972q-.324.63-.324 1.602V647h-2.25v-9.612h2.142v2.592l-.378-.792a3.36 3.36 0 0 1 1.458-1.404q.972-.504 2.232-.504m11.242 13.338a9.6 9.6 0 0 1-2.61-.36q-1.26-.342-2.07-1.008l1.008-1.692q.63.522 1.584.828a6.2 6.2 0 0 0 1.962.324q1.584 0 2.322-.738.738-.72.738-2.178v-1.71l.18-2.178-.072-2.178v-2.34h2.142v8.154q0 2.61-1.332 3.834-1.332 1.242-3.852 1.242m-.288-4.05q-1.368 0-2.484-.576a4.6 4.6 0 0 1-1.746-1.638q-.63-1.044-.63-2.448 0-1.386.63-2.43a4.45 4.45 0 0 1 1.746-1.62q1.116-.576 2.484-.576 1.224 0 2.196.486t1.548 1.512q.594 1.026.594 2.628c0 1.602-.198 1.95-.594 2.646q-.576 1.026-1.548 1.53-.972.486-2.196.486m.342-1.908q.846 0 1.512-.342.666-.36 1.026-.972.378-.63.378-1.44t-.378-1.422a2.3 2.3 0 0 0-1.026-.954 3.26 3.26 0 0 0-1.512-.342q-.846 0-1.53.342a2.43 2.43 0 0 0-1.044.954q-.36.612-.36 1.422t.36 1.44q.378.612 1.044.972.684.342 1.53.342m12.606 2.466q-1.602 0-2.808-.63a4.77 4.77 0 0 1-1.854-1.764q-.648-1.116-.648-2.538 0-1.44.63-2.538a4.65 4.65 0 0 1 1.764-1.746q1.134-.63 2.574-.63 1.404 0 2.502.612a4.43 4.43 0 0 1 1.728 1.728q.63 1.116.63 2.628 0 .144-.018.324a3 3 0 0 1-.018.342h-8.01v-1.494h6.822l-.882.468q.018-.828-.342-1.458t-.99-.99q-.612-.36-1.422-.36-.828 0-1.458.36-.612.36-.972 1.008-.342.63-.342 1.494v.36q0 .864.396 1.53a2.64 2.64 0 0 0 1.116 1.026q.72.36 1.656.36.81 0 1.458-.252a3.1 3.1 0 0 0 1.152-.792l1.206 1.386a4.3 4.3 0 0 1-1.638 1.17q-.972.396-2.232.396m9.649 0a8.7 8.7 0 0 1-2.322-.306q-1.098-.324-1.746-.774l.864-1.71q.648.414 1.548.684t1.8.27q1.062 0 1.53-.288.486-.288.486-.774a.65.65 0 0 0-.324-.594q-.324-.216-.846-.324a18 18 0 0 0-1.17-.198q-.63-.09-1.278-.234a5 5 0 0 1-1.152-.45 2.5 2.5 0 0 1-.846-.81q-.324-.504-.324-1.332 0-.918.522-1.584.522-.684 1.458-1.044.954-.378 2.25-.378.972 0 1.962.216t1.638.612l-.864 1.71a4.4 4.4 0 0 0-1.386-.558 6 6 0 0 0-1.368-.162q-1.026 0-1.53.306-.486.306-.486.774 0 .432.324.648t.846.342 1.152.216q.648.072 1.278.234a5 5 0 0 1 1.152.45q.54.27.864.774t.324 1.314q0 .9-.54 1.566-.522.666-1.494 1.044-.972.36-2.322.36"/><defs><linearGradient id="a" x1="24" x2="56" y1="116" y2="116" gradientUnits="userSpaceOnUse"><stop stop-color="#1b34ff"/><stop offset="1" stop-color="#4d63ff"/></linearGradient><linearGradient id="b" x1="0" x2="19.2" y1="9.6" y2="9.6" gradientUnits="userSpaceOnUse"><stop stop-color="#1b34ff"/><stop offset="1" stop-color="#4d63ff"/></linearGradient><linearGradient id="c" x1="380" x2="416" y1="116" y2="116" gradientUnits="userSpaceOnUse"><stop stop-color="#1b34ff"/><stop offset="1" stop-color="#4d63ff"/></linearGradient><linearGradient id="d" x1="138" x2="278" y1="253.5" y2="331" gradientUnits="userSpaceOnUse"><stop stop-color="#1b34ff"/><stop offset="1" stop-color="#4dffa9"/></linearGradient><linearGradient id="e" x1="26.5" x2="413.5" y1="641" y2="641" gradientUnits="userSpaceOnUse"><stop stop-color="#1b34ff"/><stop offset="1" stop-color="#4d63ff"/></linearGradient></defs></svg>