<svg xmlns="http://www.w3.org/2000/svg" width="440" height="908" fill="none" viewBox="0 0 440 908">
  <path fill="#FCFCFC" d="M0 0h440v908H0z"/>
  <path fill="#fff" d="M0 0h440v50H0z"/>
  <path fill="#000" d="M21.065 25.93c1.088 0 2.012.232 2.771.697.77.453 1.36 1.116 1.768 1.989.408.873.612 1.95.612 3.23 0 1.36-.25 2.51-.748 3.451-.487.94-1.167 1.655-2.04 2.142-.873.487-1.887.731-3.043.731-.6 0-1.173-.062-1.717-.187a4.291 4.291 0 0 1-1.41-.578l.815-1.666c.329.215.686.368 1.071.459.386.08.782.119 1.19.119 1.122 0 2.012-.346 2.67-1.037.656-.691.985-1.711.985-3.06 0-.215-.006-.465-.017-.748a4.738 4.738 0 0 0-.119-.884l.68.748c-.193.465-.47.856-.833 1.173a3.758 3.758 0 0 1-1.275.697 5.194 5.194 0 0 1-1.615.238c-.77 0-1.467-.147-2.09-.442a3.718 3.718 0 0 1-1.463-1.275c-.363-.555-.544-1.201-.544-1.938 0-.793.193-1.473.578-2.04a3.847 3.847 0 0 1 1.564-1.343 5.089 5.089 0 0 1 2.21-.476Zm.12 1.734a2.74 2.74 0 0 0-1.208.255 1.933 1.933 0 0 0-.833.697c-.192.295-.289.652-.289 1.071 0 .623.215 1.116.646 1.479.43.363 1.009.544 1.734.544.476 0 .896-.085 1.258-.255.363-.181.646-.425.85-.731.204-.317.306-.669.306-1.054a1.79 1.79 0 0 0-.289-1.003 2.026 2.026 0 0 0-.833-.731c-.363-.181-.81-.272-1.343-.272Zm7.852 3.978c-.385 0-.714-.13-.986-.391a1.384 1.384 0 0 1-.408-1.02c0-.43.136-.77.408-1.02.272-.26.601-.391.986-.391.386 0 .714.13.986.391.272.25.408.59.408 1.02 0 .408-.136.748-.408 1.02-.272.26-.6.391-.986.391Zm0 6.477c-.385 0-.714-.13-.986-.391a1.384 1.384 0 0 1-.408-1.02c0-.43.136-.77.408-1.02.272-.26.601-.391.986-.391.386 0 .714.13.986.391.272.25.408.59.408 1.02 0 .408-.136.748-.408 1.02-.272.26-.6.391-.986.391Zm2.655-2.822v-1.53l5.865-7.667h2.363l-5.78 7.667-1.105-.34h9.435v1.87H31.692ZM38.22 38v-2.703l.068-1.87V31.03h2.074V38H38.22Zm6.652 0V26.95l.97 1.003h-3.486V26.1h4.726V38h-2.21Z"/>
  <path fill="#000" fill-rule="evenodd" d="M357.865 27.033c0-.633-.478-1.146-1.067-1.146h-1.066c-.589 0-1.067.513-1.067 1.146v9.934c0 .633.478 1.146 1.067 1.146h1.066c.589 0 1.067-.513 1.067-1.146v-9.934Zm-7.434 1.3h1.067c.589 0 1.066.525 1.066 1.173v7.434c0 .648-.477 1.173-1.066 1.173h-1.067c-.589 0-1.067-.525-1.067-1.173v-7.434c0-.648.478-1.174 1.067-1.174Zm-4.332 2.648h-1.067c-.589 0-1.066.532-1.066 1.189v4.755c0 .656.477 1.188 1.066 1.188h1.067c.589 0 1.067-.532 1.067-1.188V32.17c0-.657-.478-1.189-1.067-1.189Zm-5.301 2.445h-1.066c-.589 0-1.067.525-1.067 1.172v2.344c0 .647.478 1.171 1.067 1.171h1.066c.589 0 1.067-.524 1.067-1.171v-2.344c0-.647-.478-1.172-1.067-1.172Zm32.639-5.124c2.487 0 4.879.922 6.681 2.576a.356.356 0 0 0 .487-.004l1.297-1.263a.342.342 0 0 0-.003-.494c-4.731-4.375-12.195-4.375-16.926 0a.346.346 0 0 0-.108.246c0 .093.037.182.105.248l1.298 1.263c.133.13.351.132.486.004 1.803-1.654 4.195-2.576 6.683-2.576Zm-.004 4.22a5.43 5.43 0 0 1 3.673 1.436c.136.131.35.129.483-.006l1.287-1.32a.367.367 0 0 0-.005-.519 7.9 7.9 0 0 0-10.873 0 .367.367 0 0 0-.005.52l1.287 1.319a.342.342 0 0 0 .483.006 5.43 5.43 0 0 1 3.67-1.436Zm2.525 2.794a.408.408 0 0 1-.103.28l-2.176 2.455a.324.324 0 0 1-.242.113.324.324 0 0 1-.242-.113l-2.177-2.454a.408.408 0 0 1-.102-.281.403.403 0 0 1 .113-.276c1.39-1.314 3.426-1.314 4.816 0 .07.07.111.17.113.276Z" clip-rule="evenodd"/>
  <rect width="24" height="12" x="389.507" y="26" stroke="#000" opacity=".35" rx="3.8"/>
  <path fill="#000" d="M415.007 30.281v4.076a2.212 2.212 0 0 0 1.328-2.038c0-.89-.523-1.693-1.328-2.038" opacity=".4"/>
  <rect width="21" height="9" x="391.007" y="27.5" fill="#000" rx="2.5"/>
  <rect width="32" height="32" x="24" y="100" fill="url(#a)" rx="16"/>
  <path fill="url(#b)" d="M0 0h19.2v19.2H0z" transform="translate(30.4 106.4)"/>
  <path fill="#fff" d="m36.66 116.8 4.48 4.48L40 122.4l-6.4-6.4 6.4-6.4 1.14 1.12-4.48 4.48h9.74v1.6h-9.74Z"/>
  <path fill="#000" d="M145.692 122v-12.6h1.926l5.508 9.198h-1.008l5.418-9.198h1.926l.018 12.6h-2.214l-.018-9.126h.468l-4.608 7.686h-1.044l-4.68-7.686h.54V122h-2.232Zm17.767 3.618c-.468 0-.936-.078-1.404-.234a3.33 3.33 0 0 1-1.17-.648l.9-1.656c.228.204.486.366.774.486.288.12.582.18.882.18.408 0 .738-.102.99-.306.252-.204.486-.546.702-1.026l.558-1.26.18-.27 3.636-8.496h2.16l-4.5 10.386c-.3.72-.636 1.29-1.008 1.71-.36.42-.768.714-1.224.882a4.141 4.141 0 0 1-1.476.252Zm1.98-3.276-4.338-9.954h2.34l3.528 8.298-1.53 1.656Zm10.482-.216a8.742 8.742 0 0 1-2.322-.306c-.732-.216-1.314-.474-1.746-.774l.864-1.71c.432.276.948.504 1.548.684.6.18 1.2.27 1.8.27.708 0 1.218-.096 1.53-.288.324-.192.486-.45.486-.774a.65.65 0 0 0-.324-.594c-.216-.144-.498-.252-.846-.324a18.116 18.116 0 0 0-1.17-.198c-.42-.06-.846-.138-1.278-.234a4.9 4.9 0 0 1-1.152-.45 2.485 2.485 0 0 1-.846-.81c-.216-.336-.324-.78-.324-1.332 0-.612.174-1.14.522-1.584.348-.456.834-.804 1.458-1.044.636-.252 1.386-.378 2.25-.378.648 0 1.302.072 1.962.216.66.144 1.206.348 1.638.612l-.864 1.71a4.369 4.369 0 0 0-1.386-.558 5.918 5.918 0 0 0-1.368-.162c-.684 0-1.194.102-1.53.306-.324.204-.486.462-.486.774 0 .288.108.504.324.648.216.144.498.258.846.342.348.084.732.156 1.152.216.432.048.858.126 1.278.234a4.9 4.9 0 0 1 1.152.45c.36.18.648.438.864.774.216.336.324.774.324 1.314 0 .6-.18 1.122-.54 1.566-.348.444-.846.792-1.494 1.044-.648.24-1.422.36-2.322.36Zm12.215-.126v-1.944l-.126-.414v-3.402c0-.66-.198-1.17-.594-1.53-.396-.372-.996-.558-1.8-.558-.54 0-1.074.084-1.602.252a3.925 3.925 0 0 0-1.314.702l-.882-1.638c.516-.396 1.128-.69 1.836-.882a8.148 8.148 0 0 1 2.232-.306c1.392 0 2.466.336 3.222 1.008.768.66 1.152 1.686 1.152 3.078V122h-2.124Zm-3.024.126c-.72 0-1.35-.12-1.89-.36-.54-.252-.96-.594-1.26-1.026a2.686 2.686 0 0 1-.432-1.494c0-.54.126-1.026.378-1.458.264-.432.69-.774 1.278-1.026.588-.252 1.368-.378 2.34-.378h2.79v1.494h-2.628c-.768 0-1.284.126-1.548.378-.264.24-.396.54-.396.9 0 .408.162.732.486.972.324.24.774.36 1.35.36.552 0 1.044-.126 1.476-.378.444-.252.762-.624.954-1.116l.378 1.35c-.216.564-.606 1.002-1.17 1.314-.552.312-1.254.468-2.106.468Zm10.416-.126-4.122-9.612h2.34l3.546 8.478h-1.152l3.672-8.478h2.16L197.85 122h-2.322Zm7.85 0v-9.612h2.25V122h-2.25Zm1.134-11.196c-.42 0-.768-.132-1.044-.396a1.3 1.3 0 0 1-.396-.954c0-.384.132-.702.396-.954.276-.264.624-.396 1.044-.396.42 0 .762.126 1.026.378.276.24.414.546.414.918 0 .396-.132.732-.396 1.008-.264.264-.612.396-1.044.396Zm9.523 1.476c.768 0 1.452.15 2.052.45.612.3 1.092.762 1.44 1.386.348.612.522 1.404.522 2.376V122h-2.25v-5.22c0-.852-.204-1.488-.612-1.908-.396-.42-.954-.63-1.674-.63-.528 0-.996.108-1.404.324-.408.216-.726.54-.954.972-.216.42-.324.954-.324 1.602V122h-2.25v-9.612h2.142v2.592l-.378-.792a3.364 3.364 0 0 1 1.458-1.404c.648-.336 1.392-.504 2.232-.504Zm11.242 13.338a9.58 9.58 0 0 1-2.61-.36c-.84-.228-1.53-.564-2.07-1.008l1.008-1.692c.42.348.948.624 1.584.828a6.169 6.169 0 0 0 1.962.324c1.056 0 1.83-.246 2.322-.738.492-.48.738-1.206.738-2.178v-1.71l.18-2.178-.072-2.178v-2.34h2.142v8.154c0 1.74-.444 3.018-1.332 3.834-.888.828-2.172 1.242-3.852 1.242Zm-.288-4.05c-.912 0-1.74-.192-2.484-.576a4.585 4.585 0 0 1-1.746-1.638c-.42-.696-.63-1.512-.63-2.448 0-.924.21-1.734.63-2.43a4.45 4.45 0 0 1 1.746-1.62c.744-.384 1.572-.576 2.484-.576.816 0 1.548.162 2.196.486.648.324 1.164.828 1.548 1.512.396.684.594 1.56.594 2.628s-.198 1.95-.594 2.646c-.384.684-.9 1.194-1.548 1.53-.648.324-1.38.486-2.196.486Zm.342-1.908c.564 0 1.068-.114 1.512-.342.444-.24.786-.564 1.026-.972.252-.42.378-.9.378-1.44 0-.54-.126-1.014-.378-1.422a2.323 2.323 0 0 0-1.026-.954 3.262 3.262 0 0 0-1.512-.342c-.564 0-1.074.114-1.53.342a2.433 2.433 0 0 0-1.044.954c-.24.408-.36.882-.36 1.422 0 .54.12 1.02.36 1.44.252.408.6.732 1.044.972.456.228.966.342 1.53.342Zm11.081 2.34-4.176-12.6h2.43l3.726 11.394h-1.206l3.87-11.394h2.16l3.762 11.394h-1.17l3.816-11.394h2.232L247.68 122h-2.484l-3.438-10.278h.648L238.914 122h-2.502Zm22.336 0v-1.944l-.126-.414v-3.402c0-.66-.198-1.17-.594-1.53-.396-.372-.996-.558-1.8-.558-.54 0-1.074.084-1.602.252a3.925 3.925 0 0 0-1.314.702l-.882-1.638c.516-.396 1.128-.69 1.836-.882a8.148 8.148 0 0 1 2.232-.306c1.392 0 2.466.336 3.222 1.008.768.66 1.152 1.686 1.152 3.078V122h-2.124Zm-3.024.126c-.72 0-1.35-.12-1.89-.36-.54-.252-.96-.594-1.26-1.026a2.686 2.686 0 0 1-.432-1.494c0-.54.126-1.026.378-1.458.264-.432.69-.774 1.278-1.026.588-.252 1.368-.378 2.34-.378h2.79v1.494H256.3c-.768 0-1.284.126-1.548.378-.264.24-.396.54-.396.9 0 .408.162.732.486.972.324.24.774.36 1.35.36.552 0 1.044-.126 1.476-.378.444-.252.762-.624.954-1.116l.378 1.35c-.216.564-.606 1.002-1.17 1.314-.552.312-1.254.468-2.106.468Zm8.035-.126v-13.356h2.25V122h-2.25Zm5.203 0v-13.356h2.25V122h-2.25Zm9.721.126c-1.068 0-2.004-.21-2.808-.63a4.772 4.772 0 0 1-1.854-1.764c-.432-.744-.648-1.59-.648-2.538 0-.96.21-1.806.63-2.538a4.65 4.65 0 0 1 1.764-1.746c.756-.42 1.614-.63 2.574-.63.936 0 1.77.204 2.502.612a4.43 4.43 0 0 1 1.728 1.728c.42.744.63 1.62.63 2.628 0 .096-.006.204-.018.324a3.1 3.1 0 0 1-.018.342h-8.01v-1.494h6.822l-.882.468c.012-.552-.102-1.038-.342-1.458-.24-.42-.57-.75-.99-.99-.408-.24-.882-.36-1.422-.36-.552 0-1.038.12-1.458.36-.408.24-.732.576-.972 1.008-.228.42-.342.918-.342 1.494v.36c0 .576.132 1.086.396 1.53a2.64 2.64 0 0 0 1.116 1.026c.48.24 1.032.36 1.656.36.54 0 1.026-.084 1.458-.252a3.103 3.103 0 0 0 1.152-.792l1.206 1.386a4.305 4.305 0 0 1-1.638 1.17c-.648.264-1.392.396-2.232.396Zm10.298 0c-1.056 0-1.872-.27-2.448-.81-.576-.552-.864-1.362-.864-2.43v-8.622h2.25v8.568c0 .456.114.81.342 1.062.24.252.57.378.99.378.504 0 .924-.132 1.26-.396l.63 1.602a2.644 2.644 0 0 1-.972.486c-.384.108-.78.162-1.188.162Zm-4.896-7.866v-1.8h6.408v1.8h-6.408Z"/>
  <rect width="36" height="36" x="380" y="98" fill="url(#c)" rx="18"/>
  <path fill="#fff" d="M403.4 112.073 401.327 110l-3.627 3.627-3.627-3.627-2.073 2.073 3.627 3.627-3.627 3.627 2.073 2.073 3.627-3.627 3.627 3.627 2.073-2.073-3.627-3.627 3.627-3.627Z"/>
  <circle cx="215.5" cy="253.5" r="76.5" fill="#FFD24D" stroke="url(#d)" stroke-width="2"/>
  <path fill="#B68859" d="M217.117 237.866s3.07-1.216 5.794-1.676c2.725-.454 4.947-.378 4.947-.378s2.385-3.12 2.725-4.796c.339-1.675.381-3.232.423-3.503.103-.648 4.947-.686 5.964 1.903 1.023 2.59-.254 5.709-1.108 6.85-.854 1.14-1.792 1.978-1.792 1.978s4.178 3.503 5.116 7.385c.939 3.881.684 9.59.684 9.59s-.254 4.336-2.639 4.644c-2.386.302-5.286-1.638-5.71-2.092-.424-.454-1.247-1.736-2.64-1.33-1.574.454-1.98 2.076-2.301 3.503-.399 1.751-.993 6.217-.993 6.217s-2.839 1.016-4.547.784c-1.707-.227-3.838-2.055-3.838-2.055s.169-2.281-.685-2.741c-.853-.459-1.707.838-1.707.838l-3.409 3.347-4.686-3.428s-.339-1.524-.854-2.281c-.508-.762-1.532-2.433-1.877-3.579-.847-2.816-.593-8.217-.593-8.217l-5.201-22.678 1.277-1.065s1.193-5.482 3.07-7.839c1.877-2.357 3.409-2.967 4.432-3.427 1.023-.459 4.178-.762 4.178 0s-1.447 1.752-2.301 2.968c-.854 1.216-1.792 2.968-2.301 4.492-.508 1.525-1.077 3.347-1.077 3.347l1.846.378s1.024-2.206 1.962-3.346c.939-1.141 2.258-2.703 3.881-3.806 1.375-.935 3.282-1.903 5.413-1.903 2.131 0 4.947.535 4.686 1.941-.139.767-1.749.416-3.366 1.367-1.968 1.157-4.093 3.082-5.667 6.315-1.574 3.232-2.131 4.643-2.131 4.643s4.135 3.466 4.559 4.644c.424 1.179.466 3.006.466 3.006Z"/>
  <path fill="#6D4938" d="M198.365 249.029s3.469 1.957 5.001 2.027c2.355.114 5.825-1.129 7.998-3.259 2.174-2.13 3.966-5.233 3.651-9.018-.272-3.259-1.519-4.454-1.519-4.454s2.173 1.903 5.328 1.676c3.154-.227 5.709-1.941 6.69-3.655.775-1.351 1.49-3.005 1.023-3.308-.466-.303-2.034 0-2.034 0l-5.94 2.395-10.184.611-10.656 13.585.642 3.4Zm-8.186-21.613c-.424.26.212 1.979 1.708 3.006 1.495 1.027 3.62 1.33 3.62 1.33l3.155-3.844s-7.672-.989-8.483-.492Z"/>
  <path fill="#855B52" d="M217.171 264.074s1.732 1.422 4.16 1.233c2.428-.19 4.619-1.584 4.619-1.584s-.484 4.438-.526 5.276c-.043.838-.128 3.297-.128 3.297s-3.069 2.941-4.728 2.676c-1.665-.265-3.978-2.865-3.936-3.362.043-.497.4-2.725.485-3.871.084-1.14.054-3.665.054-3.665Zm-6.321-.676c2.597-.162 4.559-1.054 4.559-1.054s.139 3.249.085 4.109c-.097 1.502-.23 3.297-.4 3.757-.169.454-5.697 1.103-5.697 1.103s-2.682-2.13-2.682-2.244c0-.113.139-1.735.199-2.941.043-.876-.254-3.6-.254-3.6s1.72 1.027 4.19.87Zm20.416-5.919s1.835.178 3.07.065c1.235-.114 3.79-.952 4.432-1.33.642-.379 1.108-.99 1.108-.99s-.254 4.72-.212 5.633c.043.914.043 3.082.043 3.082s-2.004 2.892-4.136 3.081c-2.131.189-4.305-3.324-4.305-3.324s.315-1.855.315-2.995c-.006-1.141-.315-3.222-.315-3.222Z"/>
  <path fill="#46484A" d="M220.495 272.951c2.252.178 4.844-.914 4.844-.914s.212 3.465-.382 4.465c-.508.865-2.076 1.801-5.921 1.244-2.495-.362-2.797-1.681-2.943-2.514-.139-.838.509-3.73.509-3.73s1.041 1.222 3.893 1.449Zm15.034-8.115c1.792-.054 4.178-.902 4.178-.902s.127 3.384-1.32 4.568c-1.665 1.356-5.613.94-6.721-.168-1.108-1.103-.4-4.746-.4-4.746s1.829 1.324 4.263 1.248Zm-24.891 5.033c2.095.076 4.632-.594 4.632-.594s.315 4.087-1.817 4.795c-2.264.757-5.225.584-6.393-.736-.842-.951-.382-4.416-.382-4.416s1.786.876 3.96.951Z"/>
  <path fill="#855B52" d="M200.793 228.886c.418.222 1.278-2.092 6.775-2.054 6.055.038 9.246 2.665 9.718 2.703.466.038 3.705 0 4.729-.075 1.023-.076 2.815-.801 2.773-.265-.043.535-.727 3.465-3.748 4.222-3.027.762-8.138-.876-9.118-.952-.981-.075-1.835 0-1.75 1.33.085 1.33-11.123 7.347-11.123 7.347s-8.198-3.411-8.325-3.833c-.127-.416.793-1.524 1.55-2.562.957-1.319 1.447-2.779 1.962-3.541.508-.763 1.32-1.752 1.32-1.752s-1.593.114-2.64-.292c-.721-.276-2.513-1.346-2.598-1.724-.084-.379 2.005.038 3.706-.114 1.707-.151 4.898-1.751 4.898-1.751s1.066.762 1.362 1.486c.297.725.297 1.714.509 1.827Z"/>
  <path fill="#46484A" d="M193.419 246.888s-.491 1.676-.2 3.504c.23 1.432 1.435 2.816 1.647 3.308.212.492.599 1.638.557 2.016-.042.379.539.471.666.19.157-.341-.012-.817.424-.725.484.103 0 .941.623.962.654.027.212-.762.685-.762.496 0 .054.903.769.887.653-.011.042-.8.666-.784.508.011.084.838.793.746.399-.049-.067-.897.454-1 .454-.087.212.762.738.584.34-.114.455-.903.327-1.817-.127-.913-.508-2.205-.726-3.249-.212-1.038-.454-2.146-.466-3.135-.012-.989-.031-2.146-.031-2.146l-6.926 1.421Z"/>
  <path fill="#FFF3DD" d="M201.235 238.147c.333.027 1.593-1.216 2.162-2.103.569-.886 2.076-2.843 4.292-3.07 2.277-.233 3.609.837 4.148 2.513.496 1.546.03 3.325-2.246 4.287-2.192.93-3.04.557-4.887 1.038-.98.254-2.5 1.016-2.585 1.114-.085.103.503 3.746-2.724 5.325-2.701 1.319-6.848.811-8.98-1.573-2.337-2.617-1.901-6.547-.169-8.45 1.713-1.881 3.778-2.568 6.817-1.773 3.403.892 3.857 2.665 4.172 2.692Z"/>
  <path fill="#2E2E2E" d="M210.184 236.828c0 1.114-.793 2.13-2.356 2.157-1.338.022-1.858-.968-1.901-2.081-.054-1.422 1.084-2.136 2.216-2.157 1.472-.027 2.041.967 2.041 2.081Zm-18.043 2.811s2.216-1.087 2.494-1.216c.279-.13.999-.363 1.387.173.381.535-.236 1.011-.727 1.2-.49.189-2.555 1.313-2.555 1.313s-.236 1.39-.024 1.541c.569.406 1.429.627 2.131.573.703-.059 1.26-.324 1.471-.362.212-.038.812-.059.939.324.127.379-.176.822-.702 1.049-.63.265-1.26.546-2.325.379-.83-.13-1.49-.303-1.877-.536-.382-.227-.787-.648-.787-.648s-.576.627-1.108.61c-.533-.021-1.217-.324-1.236-.378-.024-.059-.726-.551-.405-1.087.321-.535 1.041.19 1.489.249.448.06.727-.211.769-.34.043-.136.024-1.617.024-1.617s-.956-1.103-1.174-1.292c-.212-.189-.769-.816-.194-1.2s.957 0 1.108.114c.151.113 1.302 1.151 1.302 1.151Z"/>
  <rect width="35.844" height="35.844" x="236.578" y="301.578" fill="#1B34FF" rx="17.922"/>
  <rect width="35.844" height="35.844" x="236.578" y="301.578" stroke="#1B34FF" stroke-width="1.156" rx="17.922"/>
  <path fill="#fff" d="M245.25 324.896v3.854h3.854l11.365-11.366-3.853-3.853-11.366 11.365Zm18.199-10.492a1.022 1.022 0 0 0 0-1.449l-2.404-2.404a1.015 1.015 0 0 0-.725-.301 1.034 1.034 0 0 0-.724.301l-1.881 1.88 3.854 3.854 1.88-1.881Z"/>
  <rect width="383" height="59" x="24.5" y="414.5" fill="#F9FAFB" rx="11.5"/>
  <rect width="383" height="59" x="24.5" y="414.5" stroke="#D9D9D9" rx="11.5"/>
  <path fill="#666" d="m43.977 450.5-3.42-12.6h1.926l2.556 10.494 2.934-10.494h1.998l2.844 10.53 2.592-10.53h1.926l-3.474 12.6h-2.106l-2.826-10.026-2.898 10.026h-2.052Zm17.129.216c-.744 0-1.362-.126-1.854-.378s-.858-.588-1.098-1.008a2.81 2.81 0 0 1-.36-1.386c0-.6.156-1.11.468-1.53.312-.432.756-.762 1.332-.99.576-.228 1.266-.342 2.07-.342h2.358c0-.528-.078-.966-.234-1.314a1.583 1.583 0 0 0-.702-.774c-.3-.18-.684-.27-1.152-.27-.54 0-1.002.132-1.386.396-.384.252-.624.63-.72 1.134h-1.8c.072-.636.288-1.176.648-1.62a3.573 3.573 0 0 1 1.422-1.044 4.53 4.53 0 0 1 1.836-.378c.852 0 1.566.15 2.142.45.576.3 1.008.726 1.296 1.278.3.54.45 1.188.45 1.944v5.616h-1.566l-.144-1.53c-.132.24-.288.468-.468.684-.18.216-.396.402-.648.558-.24.156-.522.276-.846.36-.312.096-.66.144-1.044.144Zm.342-1.458c.384 0 .732-.078 1.044-.234.312-.156.576-.366.792-.63.228-.276.396-.582.504-.918a3.61 3.61 0 0 0 .198-1.062v-.054h-2.142c-.516 0-.936.066-1.26.198-.312.12-.54.288-.684.504a1.33 1.33 0 0 0-.216.756c0 .3.066.558.198.774.144.204.348.366.612.486s.582.18.954.18Zm6.672 1.242v-12.96h1.8v12.96h-1.8Zm4.271 0v-12.96h1.8v12.96h-1.8Zm8.375.216c-.864 0-1.632-.198-2.303-.594a4.21 4.21 0 0 1-1.584-1.656c-.373-.708-.559-1.53-.559-2.466 0-.96.187-1.794.559-2.502a4.18 4.18 0 0 1 1.584-1.674c.672-.408 1.452-.612 2.34-.612.888 0 1.65.198 2.285.594a4.073 4.073 0 0 1 1.477 1.584c.347.648.522 1.368.522 2.16 0 .12-.007.252-.019.396 0 .132-.005.282-.017.45h-7.416v-1.278h5.651c-.035-.756-.287-1.344-.755-1.764-.469-.432-1.05-.648-1.747-.648a2.72 2.72 0 0 0-1.35.342c-.407.216-.737.54-.99.972-.24.42-.36.954-.36 1.602v.504c0 .672.12 1.242.36 1.71.252.456.582.804.99 1.044a2.69 2.69 0 0 0 1.332.342c.576 0 1.05-.126 1.422-.378a2.25 2.25 0 0 0 .828-1.026h1.8a3.993 3.993 0 0 1-.791 1.494 3.983 3.983 0 0 1-1.387 1.026c-.54.252-1.163.378-1.872.378Zm9.818-.216c-.576 0-1.074-.09-1.494-.27-.42-.18-.744-.48-.972-.9-.228-.42-.342-.99-.342-1.71v-4.662H86.21v-1.53h1.566l.216-2.268h1.584v2.268h2.574v1.53h-2.574v4.68c0 .516.108.87.324 1.062.216.18.588.27 1.116.27h1.044v1.53h-1.476Zm173.956 0v-12.6h1.764l4.446 8.802 4.464-8.802h1.782v12.6h-1.512v-9.9l-4.158 8.136h-1.134l-4.14-8.1v9.864h-1.512Zm16.035 3.96 2.214-4.968h-.522l-3.564-8.064h1.638l2.952 6.93 3.096-6.93h1.566l-5.796 13.032h-1.584Zm11.905-3.744c-.756 0-1.416-.126-1.98-.378a3.409 3.409 0 0 1-1.332-1.044 3.402 3.402 0 0 1-.594-1.602h1.548c.06.312.186.6.378.864s.45.48.774.648c.336.156.744.234 1.224.234.42 0 .768-.06 1.044-.18.276-.132.48-.306.612-.522a1.24 1.24 0 0 0 .216-.702c0-.372-.09-.654-.27-.846-.168-.192-.42-.342-.756-.45a7.564 7.564 0 0 0-1.224-.306 9.79 9.79 0 0 1-1.17-.288 4.238 4.238 0 0 1-1.026-.468c-.3-.204-.54-.45-.72-.738-.168-.288-.252-.642-.252-1.062 0-.516.132-.972.396-1.368.264-.408.642-.726 1.134-.954.504-.228 1.086-.342 1.746-.342.972 0 1.758.234 2.358.702.6.468.954 1.146 1.062 2.034h-1.494c-.06-.456-.258-.81-.594-1.062-.324-.264-.774-.396-1.35-.396-.564 0-.996.114-1.296.342a1.092 1.092 0 0 0-.432.9c0 .24.078.456.234.648.168.18.408.336.72.468.324.132.72.24 1.188.324.6.108 1.146.252 1.638.432s.888.45 1.188.81c.312.348.468.846.468 1.494 0 .564-.144 1.056-.432 1.476-.276.42-.672.75-1.188.99-.516.228-1.122.342-1.818.342Zm8.567 0c-.732 0-1.344-.126-1.836-.378-.492-.264-.858-.606-1.098-1.026-.24-.432-.36-.9-.36-1.404 0-.612.156-1.128.468-1.548.324-.432.774-.756 1.35-.972.588-.228 1.278-.342 2.07-.342h2.394c0-.564-.09-1.032-.27-1.404a1.784 1.784 0 0 0-.756-.864c-.324-.192-.732-.288-1.224-.288-.576 0-1.074.144-1.494.432-.42.288-.678.714-.774 1.278h-1.548c.072-.648.288-1.188.648-1.62.372-.444.84-.78 1.404-1.008a4.46 4.46 0 0 1 1.764-.36c.84 0 1.536.156 2.088.468.564.3.984.726 1.26 1.278.276.54.414 1.182.414 1.926v5.616h-1.35l-.09-1.602a3.36 3.36 0 0 1-.468.72c-.18.216-.396.408-.648.576a3.678 3.678 0 0 1-1.944.522Zm.234-1.278a2.5 2.5 0 0 0 1.134-.252c.348-.18.642-.42.882-.72.24-.312.42-.654.54-1.026.132-.372.198-.762.198-1.17v-.054h-2.268c-.588 0-1.062.072-1.422.216-.36.132-.618.324-.774.576-.156.24-.234.516-.234.828 0 .324.072.606.216.846.156.24.378.426.666.558.3.132.654.198 1.062.198Zm8.881 1.062-3.438-9.072h1.584l2.736 7.614 2.754-7.614h1.548l-3.438 9.072h-1.746Zm7.026 0v-9.072h1.512v9.072h-1.512Zm.756-10.998c-.3 0-.552-.096-.756-.288a1.061 1.061 0 0 1-.288-.756c0-.3.096-.54.288-.72.204-.192.456-.288.756-.288.288 0 .534.096.738.288.204.18.306.42.306.72s-.102.552-.306.756c-.204.192-.45.288-.738.288Zm3.424 10.998v-9.072h1.368l.072 1.584a3.16 3.16 0 0 1 1.224-1.314c.54-.324 1.152-.486 1.836-.486.708 0 1.32.144 1.836.432.516.276.918.702 1.206 1.278.288.564.432 1.284.432 2.16v5.418h-1.512v-5.256c0-.912-.204-1.596-.612-2.052-.396-.456-.96-.684-1.692-.684a2.46 2.46 0 0 0-1.35.378c-.396.24-.714.594-.954 1.062-.228.456-.342 1.026-.342 1.71v4.842h-1.512Zm13.918 4.176c-.816 0-1.542-.108-2.178-.324-.624-.204-1.11-.522-1.458-.954-.348-.432-.522-.966-.522-1.602 0-.276.054-.57.162-.882.12-.312.318-.618.594-.918.288-.3.69-.57 1.206-.81l1.044.612c-.636.264-1.05.564-1.242.9-.192.348-.288.666-.288.954 0 .396.114.726.342.99.228.264.546.462.954.594.408.132.87.198 1.386.198.516 0 .96-.072 1.332-.216.372-.144.66-.348.864-.612.204-.264.306-.576.306-.936 0-.42-.156-.774-.468-1.062-.312-.276-.906-.438-1.782-.486a17.438 17.438 0 0 1-1.782-.198 7.856 7.856 0 0 1-1.188-.288 4.054 4.054 0 0 1-.792-.396 5.366 5.366 0 0 1-.558-.45v-.414l1.746-1.728 1.314.468-1.8 1.62.234-.63c.132.096.258.186.378.27.12.084.282.156.486.216.204.06.486.114.846.162.372.048.858.096 1.458.144.828.06 1.488.204 1.98.432.504.228.864.534 1.08.918.228.384.342.84.342 1.368 0 .516-.144 1.002-.432 1.458-.276.468-.708.852-1.296 1.152-.588.3-1.344.45-2.268.45Zm-.018-7.02c-.756 0-1.404-.144-1.944-.432a3.02 3.02 0 0 1-1.206-1.152 3.29 3.29 0 0 1-.414-1.638c0-.6.138-1.14.414-1.62a3.15 3.15 0 0 1 1.224-1.152c.528-.3 1.17-.45 1.926-.45s1.398.15 1.926.45c.528.288.93.672 1.206 1.152.276.48.414 1.02.414 1.62 0 .6-.138 1.146-.414 1.638a3.02 3.02 0 0 1-1.206 1.152c-.528.288-1.17.432-1.926.432Zm0-1.242c.648 0 1.158-.168 1.53-.504.372-.336.558-.828.558-1.476 0-.636-.186-1.122-.558-1.458-.372-.336-.882-.504-1.53-.504-.636 0-1.152.168-1.548.504-.384.336-.576.822-.576 1.458 0 .648.192 1.14.576 1.476.384.336.9.504 1.548.504Zm1.476-3.708-.45-1.278h3.708v1.134l-3.258.144Zm7.679 7.794-3.456-12.6h1.62l2.718 10.8 3.078-10.8h1.692l3.006 10.836 2.754-10.836h1.62l-3.528 12.6h-1.728l-3.006-10.422-3.078 10.422h-1.692Zm16.811.216c-.732 0-1.344-.126-1.836-.378-.492-.264-.858-.606-1.098-1.026-.24-.432-.36-.9-.36-1.404 0-.612.156-1.128.468-1.548.324-.432.774-.756 1.35-.972.588-.228 1.278-.342 2.07-.342h2.394c0-.564-.09-1.032-.27-1.404a1.784 1.784 0 0 0-.756-.864c-.324-.192-.732-.288-1.224-.288-.576 0-1.074.144-1.494.432-.42.288-.678.714-.774 1.278h-1.548c.072-.648.288-1.188.648-1.62.372-.444.84-.78 1.404-1.008a4.46 4.46 0 0 1 1.764-.36c.84 0 1.536.156 2.088.468.564.3.984.726 1.26 1.278.276.54.414 1.182.414 1.926v5.616h-1.35l-.09-1.602a3.36 3.36 0 0 1-.468.72c-.18.216-.396.408-.648.576a3.678 3.678 0 0 1-1.944.522Zm.234-1.278a2.5 2.5 0 0 0 1.134-.252c.348-.18.642-.42.882-.72.24-.312.42-.654.54-1.026.132-.372.198-.762.198-1.17v-.054h-2.268c-.588 0-1.062.072-1.422.216-.36.132-.618.324-.774.576-.156.24-.234.516-.234.828 0 .324.072.606.216.846.156.24.378.426.666.558.3.132.654.198 1.062.198Zm6.605 1.062v-12.96h1.512v12.96h-1.512Zm4.008 0v-12.96h1.512v12.96h-1.512Zm7.986.216c-.852 0-1.608-.198-2.268-.594a4.165 4.165 0 0 1-1.53-1.656c-.372-.72-.558-1.554-.558-2.502 0-.96.18-1.794.54-2.502a4.124 4.124 0 0 1 1.548-1.656c.672-.396 1.44-.594 2.304-.594.888 0 1.638.198 2.25.594a3.883 3.883 0 0 1 1.422 1.566c.336.636.504 1.338.504 2.106v.378c0 .132-.006.282-.018.45h-7.416v-1.17h5.958c-.036-.828-.312-1.476-.828-1.944-.504-.468-1.14-.702-1.908-.702-.516 0-.996.12-1.44.36-.432.228-.78.57-1.044 1.026-.264.444-.396 1.002-.396 1.674v.504c0 .744.132 1.368.396 1.872.276.504.63.882 1.062 1.134.444.252.918.378 1.422.378.636 0 1.158-.138 1.566-.414.42-.288.72-.672.9-1.152h1.494a3.769 3.769 0 0 1-.756 1.458c-.36.432-.81.774-1.35 1.026-.528.24-1.146.36-1.854.36Zm9.518-.216c-.54 0-1.008-.084-1.404-.252a1.848 1.848 0 0 1-.918-.846c-.204-.408-.306-.954-.306-1.638v-5.058h-1.584v-1.278h1.584l.198-2.196h1.314v2.196h2.628v1.278h-2.628v5.058c0 .564.114.948.342 1.152.228.192.63.288 1.206.288h.972v1.296h-1.404Z"/>
  <rect width="383" height="59" x="24.5" y="498.5" fill="#F9FAFB" rx="11.5"/>
  <rect width="383" height="59" x="24.5" y="498.5" stroke="#D9D9D9" rx="11.5"/>
  <path fill="#666" d="m40.68 534.5 4.626-12.6h1.962l4.626 12.6h-1.926l-3.69-10.44-3.708 10.44h-1.89Zm2.088-3.114.504-1.44h5.922l.504 1.44h-6.93Zm14.388 3.33c-.864 0-1.626-.204-2.286-.612a4.385 4.385 0 0 1-1.548-1.692c-.36-.72-.54-1.536-.54-2.448 0-.924.18-1.74.54-2.448a4.252 4.252 0 0 1 1.548-1.674c.672-.42 1.44-.63 2.304-.63.708 0 1.332.144 1.872.432.54.276.96.672 1.26 1.188v-5.292h1.8v12.96h-1.62l-.18-1.404c-.18.276-.414.54-.702.792-.288.24-.636.438-1.044.594-.408.156-.876.234-1.404.234Zm.288-1.566c.564 0 1.062-.132 1.494-.396.432-.264.762-.636.99-1.116.24-.48.36-1.038.36-1.674 0-.636-.12-1.188-.36-1.656a2.562 2.562 0 0 0-.99-1.116c-.432-.276-.93-.414-1.494-.414a2.65 2.65 0 0 0-1.458.414 2.677 2.677 0 0 0-1.008 1.116c-.24.468-.36 1.02-.36 1.656 0 .636.12 1.194.36 1.674s.576.852 1.008 1.116a2.74 2.74 0 0 0 1.458.396Zm11.156 1.566c-.864 0-1.626-.204-2.286-.612a4.385 4.385 0 0 1-1.548-1.692c-.36-.72-.54-1.536-.54-2.448 0-.924.18-1.74.54-2.448a4.252 4.252 0 0 1 1.548-1.674c.672-.42 1.44-.63 2.304-.63.708 0 1.332.144 1.872.432.54.276.96.672 1.26 1.188v-5.292h1.8v12.96h-1.62l-.18-1.404c-.18.276-.414.54-.702.792-.288.24-.636.438-1.044.594-.408.156-.876.234-1.404.234Zm.288-1.566c.564 0 1.062-.132 1.494-.396.432-.264.762-.636.99-1.116.24-.48.36-1.038.36-1.674 0-.636-.12-1.188-.36-1.656a2.562 2.562 0 0 0-.99-1.116c-.432-.276-.93-.414-1.494-.414a2.65 2.65 0 0 0-1.458.414 2.677 2.677 0 0 0-1.008 1.116c-.24.468-.36 1.02-.36 1.656 0 .636.12 1.194.36 1.674s.576.852 1.008 1.116a2.74 2.74 0 0 0 1.458.396Zm7.123 1.35v-9.072h1.62l.162 1.71a3.22 3.22 0 0 1 .792-1.026c.324-.288.702-.51 1.134-.666a4.546 4.546 0 0 1 1.512-.234v1.908h-.648c-.372 0-.726.048-1.062.144a2.274 2.274 0 0 0-.9.45c-.252.216-.45.51-.594.882-.144.372-.216.834-.216 1.386v4.518h-1.8Zm10.714.216c-.864 0-1.632-.198-2.304-.594a4.21 4.21 0 0 1-1.585-1.656c-.371-.708-.558-1.53-.558-2.466 0-.96.186-1.794.558-2.502a4.18 4.18 0 0 1 1.585-1.674c.671-.408 1.451-.612 2.34-.612.888 0 1.65.198 2.285.594a4.073 4.073 0 0 1 1.476 1.584c.349.648.522 1.368.522 2.16 0 .12-.005.252-.017.396 0 .132-.007.282-.019.45h-7.415v-1.278h5.651c-.035-.756-.287-1.344-.755-1.764-.469-.432-1.05-.648-1.746-.648a2.72 2.72 0 0 0-1.35.342c-.409.216-.739.54-.99.972-.24.42-.36.954-.36 1.602v.504c0 .672.12 1.242.36 1.71.251.456.581.804.99 1.044.407.228.852.342 1.332.342.576 0 1.05-.126 1.422-.378a2.27 2.27 0 0 0 .828-1.026h1.8a3.993 3.993 0 0 1-.793 1.494 3.983 3.983 0 0 1-1.385 1.026c-.54.252-1.164.378-1.872.378Zm9.83 0c-.769 0-1.44-.126-2.017-.378-.576-.252-1.032-.606-1.368-1.062a3.298 3.298 0 0 1-.612-1.602h1.836c.06.288.174.552.342.792.18.24.42.432.72.576.312.144.678.216 1.098.216.396 0 .72-.054.972-.162.264-.12.456-.276.576-.468.12-.204.18-.42.18-.648 0-.336-.084-.588-.252-.756-.156-.18-.396-.318-.72-.414a8.145 8.145 0 0 0-1.134-.288c-.42-.072-.828-.168-1.224-.288a5.226 5.226 0 0 1-1.044-.486c-.3-.192-.54-.432-.72-.72-.18-.3-.27-.666-.27-1.098 0-.516.138-.978.414-1.386.276-.42.666-.744 1.17-.972.516-.24 1.122-.36 1.818-.36 1.008 0 1.818.24 2.43.72.612.48.972 1.158 1.08 2.034h-1.746c-.048-.408-.228-.72-.54-.936-.312-.228-.726-.342-1.242-.342s-.912.102-1.188.306a.96.96 0 0 0-.414.81c0 .216.078.408.234.576.156.168.384.312.684.432.312.108.69.21 1.134.306.636.12 1.206.27 1.71.45s.906.444 1.206.792c.3.348.45.846.45 1.494a2.459 2.459 0 0 1-.432 1.494c-.288.432-.702.768-1.242 1.008-.528.24-1.158.36-1.89.36Zm9.193 0c-.768 0-1.44-.126-2.016-.378-.576-.252-1.032-.606-1.368-1.062a3.298 3.298 0 0 1-.612-1.602h1.836c.06.288.174.552.342.792.18.24.42.432.72.576.312.144.678.216 1.098.216.396 0 .72-.054.972-.162.264-.12.456-.276.576-.468.12-.204.18-.42.18-.648 0-.336-.084-.588-.252-.756-.156-.18-.396-.318-.72-.414a8.145 8.145 0 0 0-1.134-.288c-.42-.072-.828-.168-1.224-.288a5.226 5.226 0 0 1-1.044-.486c-.3-.192-.54-.432-.72-.72-.18-.3-.27-.666-.27-1.098 0-.516.138-.978.414-1.386.276-.42.666-.744 1.17-.972.516-.24 1.122-.36 1.818-.36 1.008 0 1.818.24 2.43.72.612.48.972 1.158 1.08 2.034h-1.746c-.048-.408-.228-.72-.54-.936-.312-.228-.726-.342-1.242-.342s-.912.102-1.188.306a.96.96 0 0 0-.414.81c0 .216.078.408.234.576.156.168.384.312.684.432.312.108.69.21 1.134.306.636.12 1.206.27 1.71.45s.906.444 1.206.792c.3.348.45.846.45 1.494a2.459 2.459 0 0 1-.432 1.494c-.288.432-.702.768-1.242 1.008-.528.24-1.158.36-1.89.36Zm9.787 0c-.864 0-1.632-.198-2.304-.594a4.21 4.21 0 0 1-1.584-1.656c-.372-.708-.558-1.53-.558-2.466 0-.96.186-1.794.558-2.502a4.18 4.18 0 0 1 1.584-1.674c.672-.408 1.452-.612 2.34-.612.888 0 1.65.198 2.286.594a4.073 4.073 0 0 1 1.476 1.584c.348.648.522 1.368.522 2.16 0 .12-.006.252-.018.396 0 .132-.006.282-.018.45h-7.416v-1.278h5.652c-.036-.756-.288-1.344-.756-1.764-.468-.432-1.05-.648-1.746-.648a2.72 2.72 0 0 0-1.35.342c-.408.216-.738.54-.99.972-.24.42-.36.954-.36 1.602v.504c0 .672.12 1.242.36 1.71.252.456.582.804.99 1.044.408.228.852.342 1.332.342.576 0 1.05-.126 1.422-.378.372-.252.648-.594.828-1.026h1.8a3.993 3.993 0 0 1-.792 1.494 3.983 3.983 0 0 1-1.386 1.026c-.54.252-1.164.378-1.872.378Zm9.83 0c-.768 0-1.44-.126-2.016-.378-.576-.252-1.032-.606-1.368-1.062a3.298 3.298 0 0 1-.612-1.602h1.836c.06.288.174.552.342.792.18.24.42.432.72.576.312.144.678.216 1.098.216.396 0 .72-.054.972-.162.264-.12.456-.276.576-.468.12-.204.18-.42.18-.648 0-.336-.084-.588-.252-.756-.156-.18-.396-.318-.72-.414a8.145 8.145 0 0 0-1.134-.288c-.42-.072-.828-.168-1.224-.288a5.226 5.226 0 0 1-1.044-.486c-.3-.192-.54-.432-.72-.72-.18-.3-.27-.666-.27-1.098 0-.516.138-.978.414-1.386.276-.42.666-.744 1.17-.972.516-.24 1.122-.36 1.818-.36 1.008 0 1.818.24 2.43.72.612.48.972 1.158 1.08 2.034h-1.746c-.048-.408-.228-.72-.54-.936-.312-.228-.726-.342-1.242-.342s-.912.102-1.188.306a.96.96 0 0 0-.414.81c0 .216.078.408.234.576.156.168.384.312.684.432.312.108.69.21 1.134.306.636.12 1.206.27 1.71.45s.906.444 1.206.792c.3.348.45.846.45 1.494a2.459 2.459 0 0 1-.432 1.494c-.288.432-.702.768-1.242 1.008-.528.24-1.158.36-1.89.36Zm246.088-.609L377.56 528l-6.107-6.12 1.88-1.88 8 8-8 8-1.88-1.893Z"/>
  <rect width="386" height="69" x="27" y="606.5" fill="url(#e)" rx="34.5"/>
  <rect width="386" height="69" x="27" y="606.5" stroke="#313E9E" rx="34.5"/>
  <path fill="#fff" d="M160.585 647.18a9.585 9.585 0 0 1-2.826-.414c-.9-.288-1.614-.654-2.142-1.098l.81-1.818c.504.396 1.128.726 1.872.99a6.788 6.788 0 0 0 2.286.396c.66 0 1.194-.072 1.602-.216.408-.144.708-.336.9-.576.192-.252.288-.534.288-.846 0-.384-.138-.69-.414-.918-.276-.24-.636-.426-1.08-.558a14.758 14.758 0 0 0-1.458-.396 28.654 28.654 0 0 1-1.602-.414 7.632 7.632 0 0 1-1.458-.63 3.269 3.269 0 0 1-1.062-1.044c-.276-.432-.414-.984-.414-1.656 0-.684.18-1.308.54-1.872.372-.576.93-1.032 1.674-1.368.756-.348 1.71-.522 2.862-.522a8.97 8.97 0 0 1 2.25.288c.744.192 1.392.468 1.944.828l-.738 1.818a6.693 6.693 0 0 0-1.746-.738 6.404 6.404 0 0 0-1.728-.252c-.648 0-1.176.078-1.584.234-.396.156-.69.36-.882.612-.18.252-.27.54-.27.864 0 .384.132.696.396.936.276.228.63.408 1.062.54.444.132.936.264 1.476.396.54.12 1.074.258 1.602.414.54.156 1.026.36 1.458.612.444.252.798.594 1.062 1.026.276.432.414.978.414 1.638 0 .672-.186 1.296-.558 1.872-.36.564-.918 1.02-1.674 1.368-.756.336-1.71.504-2.862.504Zm13.121-.18v-1.944l-.126-.414v-3.402c0-.66-.198-1.17-.594-1.53-.396-.372-.996-.558-1.8-.558-.54 0-1.074.084-1.602.252a3.925 3.925 0 0 0-1.314.702l-.882-1.638c.516-.396 1.128-.69 1.836-.882a8.148 8.148 0 0 1 2.232-.306c1.392 0 2.466.336 3.222 1.008.768.66 1.152 1.686 1.152 3.078V647h-2.124Zm-3.024.126c-.72 0-1.35-.12-1.89-.36-.54-.252-.96-.594-1.26-1.026a2.686 2.686 0 0 1-.432-1.494c0-.54.126-1.026.378-1.458.264-.432.69-.774 1.278-1.026.588-.252 1.368-.378 2.34-.378h2.79v1.494h-2.628c-.768 0-1.284.126-1.548.378-.264.24-.396.54-.396.9 0 .408.162.732.486.972.324.24.774.36 1.35.36.552 0 1.044-.126 1.476-.378.444-.252.762-.624.954-1.116l.378 1.35c-.216.564-.606 1.002-1.17 1.314-.552.312-1.254.468-2.106.468Zm10.415-.126-4.122-9.612h2.34l3.546 8.478h-1.152l3.672-8.478h2.16L183.419 647h-2.322Zm12.105.126c-1.068 0-2.004-.21-2.808-.63a4.772 4.772 0 0 1-1.854-1.764c-.432-.744-.648-1.59-.648-2.538 0-.96.21-1.806.63-2.538a4.65 4.65 0 0 1 1.764-1.746c.756-.42 1.614-.63 2.574-.63.936 0 1.77.204 2.502.612a4.43 4.43 0 0 1 1.728 1.728c.42.744.63 1.62.63 2.628 0 .096-.006.204-.018.324a3.1 3.1 0 0 1-.018.342h-8.01v-1.494h6.822l-.882.468c.012-.552-.102-1.038-.342-1.458-.24-.42-.57-.75-.99-.99-.408-.24-.882-.36-1.422-.36-.552 0-1.038.12-1.458.36-.408.24-.732.576-.972 1.008-.228.42-.342.918-.342 1.494v.36c0 .576.132 1.086.396 1.53a2.64 2.64 0 0 0 1.116 1.026c.48.24 1.032.36 1.656.36.54 0 1.026-.084 1.458-.252a3.103 3.103 0 0 0 1.152-.792l1.206 1.386a4.305 4.305 0 0 1-1.638 1.17c-.648.264-1.392.396-2.232.396Zm17.702.054c-.96 0-1.854-.156-2.682-.468a6.697 6.697 0 0 1-2.142-1.35 6.325 6.325 0 0 1-1.404-2.07 6.569 6.569 0 0 1-.504-2.592c0-.936.168-1.8.504-2.592a6.003 6.003 0 0 1 1.422-2.052 6.307 6.307 0 0 1 2.142-1.35c.816-.324 1.71-.486 2.682-.486 1.032 0 1.974.18 2.826.54.852.348 1.572.87 2.16 1.566l-1.512 1.422a4.464 4.464 0 0 0-1.53-1.098 4.449 4.449 0 0 0-1.836-.378c-.66 0-1.266.108-1.818.324a4.327 4.327 0 0 0-1.422.918 4.361 4.361 0 0 0-.936 1.404 4.757 4.757 0 0 0-.324 1.782c0 .648.108 1.242.324 1.782.228.54.54 1.008.936 1.404.408.396.882.702 1.422.918a4.948 4.948 0 0 0 1.818.324c.66 0 1.272-.12 1.836-.36a4.58 4.58 0 0 0 1.53-1.134l1.512 1.44a5.764 5.764 0 0 1-2.16 1.566c-.852.36-1.8.54-2.844.54Zm12.484-9.9c.768 0 1.452.15 2.052.45.612.3 1.092.762 1.44 1.386.348.612.522 1.404.522 2.376V647h-2.25v-5.22c0-.852-.204-1.488-.612-1.908-.396-.42-.954-.63-1.674-.63-.528 0-.996.108-1.404.324-.408.216-.726.54-.954.972-.216.42-.324.954-.324 1.602V647h-2.25v-13.356h2.25v6.336l-.486-.792a3.364 3.364 0 0 1 1.458-1.404c.648-.336 1.392-.504 2.232-.504Zm12.79 9.72v-1.944l-.126-.414v-3.402c0-.66-.198-1.17-.594-1.53-.396-.372-.996-.558-1.8-.558-.54 0-1.074.084-1.602.252a3.925 3.925 0 0 0-1.314.702l-.882-1.638c.516-.396 1.128-.69 1.836-.882a8.148 8.148 0 0 1 2.232-.306c1.392 0 2.466.336 3.222 1.008.768.66 1.152 1.686 1.152 3.078V647h-2.124Zm-3.024.126c-.72 0-1.35-.12-1.89-.36-.54-.252-.96-.594-1.26-1.026a2.686 2.686 0 0 1-.432-1.494c0-.54.126-1.026.378-1.458.264-.432.69-.774 1.278-1.026.588-.252 1.368-.378 2.34-.378h2.79v1.494h-2.628c-.768 0-1.284.126-1.548.378-.264.24-.396.54-.396.9 0 .408.162.732.486.972.324.24.774.36 1.35.36.552 0 1.044-.126 1.476-.378.444-.252.762-.624.954-1.116l.378 1.35c-.216.564-.606 1.002-1.17 1.314-.552.312-1.254.468-2.106.468Zm13.49-9.846c.768 0 1.452.15 2.052.45.612.3 1.092.762 1.44 1.386.348.612.522 1.404.522 2.376V647h-2.25v-5.22c0-.852-.204-1.488-.612-1.908-.396-.42-.954-.63-1.674-.63-.528 0-.996.108-1.404.324-.408.216-.726.54-.954.972-.216.42-.324.954-.324 1.602V647h-2.25v-9.612h2.142v2.592l-.378-.792a3.364 3.364 0 0 1 1.458-1.404c.648-.336 1.392-.504 2.232-.504Zm11.242 13.338a9.58 9.58 0 0 1-2.61-.36c-.84-.228-1.53-.564-2.07-1.008l1.008-1.692c.42.348.948.624 1.584.828a6.169 6.169 0 0 0 1.962.324c1.056 0 1.83-.246 2.322-.738.492-.48.738-1.206.738-2.178v-1.71l.18-2.178-.072-2.178v-2.34h2.142v8.154c0 1.74-.444 3.018-1.332 3.834-.888.828-2.172 1.242-3.852 1.242Zm-.288-4.05c-.912 0-1.74-.192-2.484-.576a4.585 4.585 0 0 1-1.746-1.638c-.42-.696-.63-1.512-.63-2.448 0-.924.21-1.734.63-2.43a4.45 4.45 0 0 1 1.746-1.62c.744-.384 1.572-.576 2.484-.576.816 0 1.548.162 2.196.486.648.324 1.164.828 1.548 1.512.396.684.594 1.56.594 2.628s-.198 1.95-.594 2.646c-.384.684-.9 1.194-1.548 1.53-.648.324-1.38.486-2.196.486Zm.342-1.908c.564 0 1.068-.114 1.512-.342.444-.24.786-.564 1.026-.972.252-.42.378-.9.378-1.44 0-.54-.126-1.014-.378-1.422a2.323 2.323 0 0 0-1.026-.954 3.262 3.262 0 0 0-1.512-.342c-.564 0-1.074.114-1.53.342a2.433 2.433 0 0 0-1.044.954c-.24.408-.36.882-.36 1.422 0 .54.12 1.02.36 1.44.252.408.6.732 1.044.972.456.228.966.342 1.53.342Zm12.606 2.466c-1.068 0-2.004-.21-2.808-.63a4.772 4.772 0 0 1-1.854-1.764c-.432-.744-.648-1.59-.648-2.538 0-.96.21-1.806.63-2.538a4.65 4.65 0 0 1 1.764-1.746c.756-.42 1.614-.63 2.574-.63.936 0 1.77.204 2.502.612a4.43 4.43 0 0 1 1.728 1.728c.42.744.63 1.62.63 2.628 0 .096-.006.204-.018.324a3.1 3.1 0 0 1-.018.342h-8.01v-1.494h6.822l-.882.468c.012-.552-.102-1.038-.342-1.458-.24-.42-.57-.75-.99-.99-.408-.24-.882-.36-1.422-.36-.552 0-1.038.12-1.458.36-.408.24-.732.576-.972 1.008-.228.42-.342.918-.342 1.494v.36c0 .576.132 1.086.396 1.53a2.64 2.64 0 0 0 1.116 1.026c.48.24 1.032.36 1.656.36.54 0 1.026-.084 1.458-.252a3.103 3.103 0 0 0 1.152-.792l1.206 1.386a4.305 4.305 0 0 1-1.638 1.17c-.648.264-1.392.396-2.232.396Zm9.649 0a8.742 8.742 0 0 1-2.322-.306c-.732-.216-1.314-.474-1.746-.774l.864-1.71c.432.276.948.504 1.548.684.6.18 1.2.27 1.8.27.708 0 1.218-.096 1.53-.288.324-.192.486-.45.486-.774a.65.65 0 0 0-.324-.594c-.216-.144-.498-.252-.846-.324a18.116 18.116 0 0 0-1.17-.198c-.42-.06-.846-.138-1.278-.234a4.9 4.9 0 0 1-1.152-.45 2.485 2.485 0 0 1-.846-.81c-.216-.336-.324-.78-.324-1.332 0-.612.174-1.14.522-1.584.348-.456.834-.804 1.458-1.044.636-.252 1.386-.378 2.25-.378.648 0 1.302.072 1.962.216.66.144 1.206.348 1.638.612l-.864 1.71a4.369 4.369 0 0 0-1.386-.558 5.918 5.918 0 0 0-1.368-.162c-.684 0-1.194.102-1.53.306-.324.204-.486.462-.486.774 0 .288.108.504.324.648.216.144.498.258.846.342.348.084.732.156 1.152.216.432.048.858.126 1.278.234a4.9 4.9 0 0 1 1.152.45c.36.18.648.438.864.774.216.336.324.774.324 1.314 0 .6-.18 1.122-.54 1.566-.348.444-.846.792-1.494 1.044-.648.24-1.422.36-2.322.36Z"/>
  <defs>
    <linearGradient id="a" x1="24" x2="56" y1="116" y2="116" gradientUnits="userSpaceOnUse">
      <stop stop-color="#1B34FF"/>
      <stop offset="1" stop-color="#4D63FF"/>
    </linearGradient>
    <linearGradient id="b" x1="0" x2="19.2" y1="9.6" y2="9.6" gradientUnits="userSpaceOnUse">
      <stop stop-color="#1B34FF"/>
      <stop offset="1" stop-color="#4D63FF"/>
    </linearGradient>
    <linearGradient id="c" x1="380" x2="416" y1="116" y2="116" gradientUnits="userSpaceOnUse">
      <stop stop-color="#1B34FF"/>
      <stop offset="1" stop-color="#4D63FF"/>
    </linearGradient>
    <linearGradient id="d" x1="138" x2="278" y1="253.5" y2="331" gradientUnits="userSpaceOnUse">
      <stop stop-color="#1B34FF"/>
      <stop offset="1" stop-color="#4DFFA9"/>
    </linearGradient>
    <linearGradient id="e" x1="26.5" x2="413.5" y1="641" y2="641" gradientUnits="userSpaceOnUse">
      <stop stop-color="#1B34FF"/>
      <stop offset="1" stop-color="#4D63FF"/>
    </linearGradient>
  </defs>
</svg>
