<?xml version="1.0" encoding="UTF-8"?><svg id="Layer_2" xmlns="http://www.w3.org/2000/svg" viewBox="0 0 463.04 99.81"><defs><style>.cls-1{fill:#fff;}.cls-2{fill:#2b44ef;}</style></defs><g id="Layer_1-2"><rect class="cls-1" x="367.48" y="13.85" width="9.41" height="54.86"/><rect class="cls-1" x="382.7" y="13.85" width="9.41" height="54.86"/><path class="cls-1" d="M157.2,37.79c1.59-.99,3.36-1.49,5.3-1.49,2.25,0,4.2.58,5.84,1.73,1.65,1.15,2.73,2.72,3.26,4.71h9.88c-.94-4.5-3.09-8.04-6.43-10.63-3.35-2.59-7.48-3.88-12.4-3.88-3.92,0-7.41.89-10.47,2.67-3.06,1.78-5.44,4.22-7.14,7.34-1.7,3.11-2.55,6.73-2.55,10.87s.85,7.52,2.55,10.63c1.7,3.11,4.08,5.54,7.14,7.3,3.06,1.75,6.52,2.63,10.4,2.63,4.97,0,9.13-1.32,12.47-3.96,3.35-2.64,5.49-6.16,6.43-10.55h-9.88c-.37,1.36-.98,2.54-1.84,3.53-.86.99-1.91,1.74-3.14,2.24-1.23.5-2.6.74-4.12.74s-2.82-.29-4.08-.86c-1.25-.57-2.37-1.4-3.33-2.47-.97-1.07-1.71-2.39-2.24-3.96-.52-1.57-.78-3.37-.78-5.41,0-2.67.46-4.94,1.37-6.83.91-1.88,2.17-3.32,3.77-4.31Z"/><path class="cls-1" d="M212.78,30.15c-2.62-1.28-5.78-1.92-9.49-1.92-3.09,0-5.92.56-8.51,1.69-2.59,1.13-4.67,2.69-6.24,4.71-1.57,2.01-2.51,4.43-2.82,7.26h9.26c.36-1.99,1.31-3.46,2.82-4.43,1.52-.97,3.35-1.45,5.49-1.45,1.88,0,3.42.34,4.63,1.02,1.2.68,2.09,1.71,2.67,3.1.44,1.06.71,2.33.82,3.8.05.76-.54,1.42-1.3,1.42h-8.61c-3.66,0-6.75.51-9.26,1.53-2.51,1.02-4.41,2.45-5.69,4.28-1.28,1.83-1.92,4-1.92,6.51,0,2.15.52,4.13,1.57,5.96,1.05,1.83,2.64,3.29,4.79,4.39,2.14,1.1,4.84,1.65,8.08,1.65,1.67,0,3.18-.18,4.51-.55,1.33-.37,2.52-.88,3.57-1.53,1.05-.65,1.97-1.42,2.78-2.31.81-.89,1.48-1.86,2-2.9l.94,6.35h8v-24.48c0-3.35-.69-6.21-2.08-8.59-1.39-2.38-3.39-4.21-6-5.49ZM211.21,51.6c-.16,1.41-.47,2.75-.94,4-.47,1.26-1.14,2.39-2,3.41-.86,1.02-1.88,1.8-3.06,2.35-1.18.55-2.52.82-4.04.82-1.36,0-2.54-.21-3.53-.63-.99-.42-1.75-1.02-2.27-1.8-.52-.78-.78-1.73-.78-2.82s.26-2.05.78-2.86c.52-.81,1.38-1.45,2.59-1.92,1.2-.47,2.72-.71,4.55-.71h8.71v.16Z"/><path class="cls-1" d="M258.63,30.97c-2.85-1.83-6.13-2.75-9.84-2.75-2.2,0-4.15.31-5.85.94-1.7.63-3.14,1.45-4.31,2.47-1.18,1.02-2.19,2.11-3.02,3.26l-1.02-5.73h-8.39v56.8h9.41v-22.83c1.36,2.09,3.15,3.7,5.37,4.82,2.22,1.12,4.82,1.69,7.81,1.69,3.66,0,6.91-.89,9.77-2.67,2.85-1.78,5.1-4.22,6.75-7.34,1.65-3.11,2.47-6.65,2.47-10.63s-.81-7.52-2.43-10.63c-1.62-3.11-3.86-5.58-6.71-7.41ZM256.75,55.52c-.97,1.88-2.32,3.35-4.04,4.39-1.73,1.05-3.69,1.57-5.88,1.57s-4.22-.54-5.92-1.61c-1.7-1.07-3.03-2.54-4-4.39-.97-1.86-1.45-4.04-1.45-6.55s.48-4.63,1.45-6.51c.97-1.88,2.3-3.35,4-4.39,1.7-1.05,3.67-1.57,5.92-1.57s4.16.52,5.88,1.57c1.73,1.05,3.07,2.51,4.04,4.39.97,1.88,1.45,4.08,1.45,6.59s-.48,4.63-1.45,6.51Z"/><path class="cls-1" d="M317.67,29.16l-7.27,29.15-8.19-29.15h-10.51l-8.12,29.16-7.26-29.16h-9.34l11.33,38.6c.16.56.67.94,1.26.94h7.76c.58,0,1.1-.39,1.26-.95l8.4-29.15,8.4,29.15c.16.56.67.95,1.26.95h7.76c.58,0,1.09-.38,1.26-.94l11.33-38.6h-9.34Z"/><path class="cls-1" d="M354.07,30.15c-2.62-1.28-5.78-1.92-9.49-1.92-3.09,0-5.92.56-8.51,1.69-2.59,1.13-4.67,2.69-6.24,4.71-1.57,2.01-2.51,4.43-2.82,7.26h9.26c.37-1.99,1.31-3.46,2.82-4.43,1.52-.97,3.35-1.45,5.49-1.45,1.88,0,3.43.34,4.63,1.02,1.2.68,2.09,1.71,2.67,3.1.44,1.07.72,2.34.82,3.82.05.76-.54,1.39-1.31,1.39h-8.61c-3.66,0-6.75.51-9.26,1.53s-4.41,2.45-5.69,4.28c-1.28,1.83-1.92,4-1.92,6.51,0,2.15.52,4.13,1.57,5.96,1.05,1.83,2.64,3.29,4.79,4.39,2.14,1.1,4.84,1.65,8.08,1.65,1.67,0,3.18-.18,4.51-.55,1.33-.37,2.52-.88,3.57-1.53,1.05-.65,1.97-1.42,2.78-2.31.81-.89,1.48-1.86,2-2.9l.94,6.35h8v-24.48c0-3.35-.69-6.21-2.08-8.59-1.39-2.38-3.39-4.21-6-5.49ZM352.5,51.6c-.16,1.41-.47,2.75-.94,4-.47,1.26-1.14,2.39-2,3.41-.86,1.02-1.88,1.8-3.06,2.35-1.18.55-2.52.82-4.04.82-1.36,0-2.54-.21-3.53-.63-.99-.42-1.75-1.02-2.28-1.8-.52-.78-.78-1.73-.78-2.82s.26-2.05.78-2.86c.52-.81,1.39-1.45,2.59-1.92,1.2-.47,2.72-.71,4.55-.71h8.71v.16Z"/><path class="cls-1" d="M426.64,30.81c-2.88-1.73-6.25-2.59-10.12-2.59s-7.46.89-10.47,2.67c-3.01,1.78-5.33,4.24-6.98,7.37-1.65,3.14-2.47,6.8-2.47,10.98s.84,7.58,2.51,10.67c1.67,3.09,4,5.48,6.98,7.18,2.98,1.7,6.43,2.55,10.36,2.55,3.09,0,5.86-.56,8.32-1.69,2.46-1.12,4.52-2.67,6.2-4.63,1.67-1.96,2.88-4.17,3.61-6.63h-9.57c-.68,1.57-1.74,2.82-3.18,3.77-1.44.94-3.25,1.41-5.45,1.41-1.99,0-3.78-.46-5.37-1.37-1.6-.91-2.85-2.26-3.77-4.04-.57-1.11-.96-2.36-1.18-3.74-.12-.8.49-1.52,1.29-1.52h28.16c.11-.68.16-1.33.16-1.96v-1.73c0-3.61-.78-6.86-2.35-9.77-1.57-2.9-3.79-5.22-6.67-6.94ZM406.03,45.17c.22-1.51.62-2.83,1.23-3.96.94-1.75,2.22-3.07,3.84-3.96,1.62-.89,3.4-1.33,5.34-1.33,2.72,0,4.99.82,6.82,2.47,1.83,1.65,2.8,3.91,2.9,6.79h-20.14Z"/><path class="cls-1" d="M463.04,37.09v-7.92h-10.75v-10.43h-8.32l-.98,9.26c-.07.67-.63,1.17-1.3,1.17h-5.57v7.92h5.44c.72,0,1.31.59,1.31,1.31v17.05c0,3.29.55,5.91,1.65,7.84,1.1,1.94,2.63,3.32,4.59,4.16,1.96.84,4.28,1.26,6.94,1.26h6.75v-8h-4.86c-2.04,0-3.49-.38-4.35-1.14-.86-.76-1.3-2.13-1.3-4.12v-17.05c0-.72.59-1.31,1.31-1.31h9.44Z"/><path class="cls-2" d="M95.41,0H23.83C10.69,0,0,10.69,0,23.83v52.14c0,13.14,10.69,23.83,23.83,23.83h71.58c13.14,0,23.83-10.69,23.83-23.83V23.83c0-13.14-10.69-23.83-23.83-23.83ZM106.24,31.68c0,1.89-1.54,3.43-3.43,3.43H23.83c-5.98,0-10.84-4.85-10.84-10.84v-.44c0-5.98,4.85-10.83,10.84-10.83h71.57c5.98,0,10.84,4.85,10.84,10.83v7.85Z"/></g></svg>